<?xml version="1.0" encoding="UTF-8" standalone="no"?>
<!-- Created with Inkscape (http://www.inkscape.org/) -->

<svg
   width="158.6048mm"
   height="152.92168mm"
   viewBox="0 0 158.6048 152.92168"
   version="1.1"
   id="svg5"
   inkscape:version="1.2.2 (732a01da63, 2022-12-09, custom)"
   sodipodi:docname="stack-diagram.svg"
   inkscape:export-filename="../119fdbb8/stack-diagram.png"
   inkscape:export-xdpi="96"
   inkscape:export-ydpi="96"
   xmlns:inkscape="http://www.inkscape.org/namespaces/inkscape"
   xmlns:sodipodi="http://sodipodi.sourceforge.net/DTD/sodipodi-0.dtd"
   xmlns:xlink="http://www.w3.org/1999/xlink"
   xmlns="http://www.w3.org/2000/svg"
   xmlns:svg="http://www.w3.org/2000/svg">
  <sodipodi:namedview
     id="namedview7"
     pagecolor="#ffffff"
     bordercolor="#666666"
     borderopacity="1.0"
     inkscape:showpageshadow="2"
     inkscape:pageopacity="0.0"
     inkscape:pagecheckerboard="0"
     inkscape:deskcolor="#d1d1d1"
     inkscape:document-units="mm"
     showgrid="false"
     inkscape:zoom="1.2664867"
     inkscape:cx="219.50488"
     inkscape:cy="306.75412"
     inkscape:window-width="1920"
     inkscape:window-height="1136"
     inkscape:window-x="0"
     inkscape:window-y="0"
     inkscape:window-maximized="1"
     inkscape:current-layer="layer1" />
  <defs
     id="defs2">
    <inkscape:path-effect
       effect="perspective-envelope"
       up_left_point="87.43,57.1"
       up_right_point="140.37,57.1"
       down_left_point="73.43,80.180141"
       down_right_point="159.37,80.180141"
       id="path-effect25684"
       is_visible="true"
       lpeversion="1"
       deform_type="perspective"
       horizontal_mirror="false"
       vertical_mirror="false"
       overflow_perspective="false" />
    <inkscape:path-effect
       effect="perspective-envelope"
       up_left_point="86.88,181.12"
       up_right_point="92.3,181.12"
       down_left_point="85.38,183.85204"
       down_right_point="93.803021,183.85204"
       id="path-effect18700"
       is_visible="true"
       lpeversion="1"
       deform_type="perspective"
       horizontal_mirror="false"
       vertical_mirror="false"
       overflow_perspective="false" />
    <inkscape:path-effect
       effect="perspective-envelope"
       up_left_point="55.84,185.7"
       up_right_point="69.44,185.7"
       down_left_point="53.84,193.10245"
       down_right_point="71.43984,193.10245"
       id="path-effect18691"
       is_visible="true"
       lpeversion="1"
       deform_type="perspective"
       horizontal_mirror="false"
       vertical_mirror="false"
       overflow_perspective="false" />
    <inkscape:path-effect
       effect="perspective-envelope"
       up_left_point="85,191.91"
       up_right_point="94.31,191.91"
       down_left_point="82.995971,198.55594"
       down_right_point="96.311851,198.55594"
       id="path-effect18664"
       is_visible="true"
       lpeversion="1"
       deform_type="perspective"
       horizontal_mirror="false"
       vertical_mirror="false"
       overflow_perspective="false" />
    <inkscape:path-effect
       effect="perspective-envelope"
       up_left_point="110.84,185.25"
       up_right_point="122.6,185.25"
       down_left_point="109.84,191.8988"
       down_right_point="123.60208,191.8988"
       id="path-effect18583"
       is_visible="true"
       lpeversion="1"
       deform_type="perspective"
       horizontal_mirror="false"
       vertical_mirror="false"
       overflow_perspective="false" />
    <inkscape:path-effect
       effect="perspective-envelope"
       up_left_point="85,191.91"
       up_right_point="94.32,191.91"
       down_left_point="83,198.03606"
       down_right_point="96.319893,198.03606"
       id="path-effect18543"
       is_visible="true"
       lpeversion="1"
       deform_type="perspective"
       horizontal_mirror="false"
       vertical_mirror="false"
       overflow_perspective="false" />
    <linearGradient
       inkscape:collect="always"
       id="linearGradient11862">
      <stop
         style="stop-color:#8fb5e6;stop-opacity:1;"
         offset="0"
         id="stop11866" />
      <stop
         style="stop-color:#7aaeed;stop-opacity:1;"
         offset="0.21984001"
         id="stop11868" />
      <stop
         style="stop-color:#5785be;stop-opacity:1;"
         offset="1"
         id="stop11854" />
    </linearGradient>
    <linearGradient
       inkscape:collect="always"
       id="linearGradient11755">
      <stop
         style="stop-color:#5785be;stop-opacity:1;"
         offset="0.0001"
         id="stop11834" />
      <stop
         style="stop-color:#7aaeed;stop-opacity:1;"
         offset="0.2875874"
         id="stop11836" />
      <stop
         style="stop-color:#88b3e9;stop-opacity:1;"
         offset="0.48256558"
         id="stop11838" />
      <stop
         style="stop-color:#7aaeed;stop-opacity:1;"
         offset="0.68669206"
         id="stop11763" />
      <stop
         style="stop-color:#5785be;stop-opacity:1;"
         offset="0.99999988"
         id="stop11759" />
    </linearGradient>
    <linearGradient
       inkscape:collect="always"
       id="linearGradient1056">
      <stop
         style="stop-color:#b2da82;stop-opacity:1;"
         offset="0"
         id="stop1052" />
      <stop
         style="stop-color:#7da74c;stop-opacity:1;"
         offset="0.99989998"
         id="stop4143" />
      <stop
         style="stop-color:#b2da82;stop-opacity:0;"
         offset="0.99989998"
         id="stop1054" />
    </linearGradient>
    <inkscape:path-effect
       effect="perspective-envelope"
       up_left_point="60,132.77401"
       up_right_point="120,132.77"
       down_left_point="38,160"
       down_right_point="142,160"
       id="path-effect15341"
       is_visible="true"
       lpeversion="1"
       deform_type="perspective"
       horizontal_mirror="false"
       vertical_mirror="false"
       overflow_perspective="false" />
    <linearGradient
       inkscape:collect="always"
       xlink:href="#linearGradient1056"
       id="linearGradient4701"
       x1="83.682022"
       y1="115.72475"
       x2="78.229134"
       y2="130.75386"
       gradientUnits="userSpaceOnUse"
       gradientTransform="translate(0,19.592452)" />
    <linearGradient
       inkscape:collect="always"
       xlink:href="#linearGradient1056"
       id="linearGradient4721"
       x1="96.310089"
       y1="115.72475"
       x2="101.75579"
       y2="130.75175"
       gradientUnits="userSpaceOnUse"
       gradientTransform="translate(0,19.592452)" />
    <linearGradient
       inkscape:collect="always"
       xlink:href="#linearGradient1056"
       id="linearGradient5106"
       x1="59.307842"
       y1="107.13715"
       x2="55.200722"
       y2="122.70777"
       gradientUnits="userSpaceOnUse"
       gradientTransform="translate(0,31.57703)" />
    <linearGradient
       inkscape:collect="always"
       xlink:href="#linearGradient1056"
       id="linearGradient5114"
       x1="73.102669"
       y1="107.13715"
       x2="80.739159"
       y2="122.70495"
       gradientUnits="userSpaceOnUse"
       gradientTransform="translate(0,31.57703)" />
    <linearGradient
       inkscape:collect="always"
       xlink:href="#linearGradient1056"
       id="linearGradient5195"
       x1="106.89946"
       y1="112.12152"
       x2="99.254524"
       y2="127.69183"
       gradientUnits="userSpaceOnUse"
       gradientTransform="translate(0,26.584834)" />
    <linearGradient
       inkscape:collect="always"
       xlink:href="#linearGradient1056"
       id="linearGradient5203"
       x1="120.69397"
       y1="112.12152"
       x2="124.79233"
       y2="127.6887"
       gradientUnits="userSpaceOnUse"
       gradientTransform="translate(0,26.584834)" />
    <linearGradient
       inkscape:collect="always"
       xlink:href="#linearGradient1056"
       id="linearGradient5235"
       x1="81.939827"
       y1="110.35887"
       x2="76.038956"
       y2="126.63774"
       gradientUnits="userSpaceOnUse"
       gradientTransform="translate(0,32.377197)" />
    <linearGradient
       inkscape:collect="always"
       xlink:href="#linearGradient1056"
       id="linearGradient5243"
       x1="97.606415"
       y1="110.35887"
       x2="103.96474"
       y2="126.63461"
       gradientUnits="userSpaceOnUse"
       gradientTransform="translate(0,32.377197)" />
    <linearGradient
       inkscape:collect="always"
       xlink:href="#linearGradient1056"
       id="linearGradient5423"
       x1="52.366459"
       y1="112.37628"
       x2="48.034626"
       y2="129.60596"
       gradientUnits="userSpaceOnUse"
       gradientTransform="translate(0,35.22066)" />
    <linearGradient
       inkscape:collect="always"
       xlink:href="#linearGradient1056"
       id="linearGradient5431"
       x1="69.286919"
       y1="112.37628"
       x2="78.840988"
       y2="129.60283"
       gradientUnits="userSpaceOnUse"
       gradientTransform="translate(0,35.22066)" />
    <linearGradient
       inkscape:collect="always"
       xlink:href="#linearGradient1056"
       id="linearGradient5463"
       x1="110.73023"
       y1="113.98839"
       x2="101.16364"
       y2="131.21776"
       gradientUnits="userSpaceOnUse"
       gradientTransform="translate(0,33.604418)" />
    <linearGradient
       inkscape:collect="always"
       xlink:href="#linearGradient1056"
       id="linearGradient5471"
       x1="127.65195"
       y1="113.98839"
       x2="131.97188"
       y2="131.21494"
       gradientUnits="userSpaceOnUse"
       gradientTransform="translate(0,33.604418)" />
    <linearGradient
       inkscape:collect="always"
       xlink:href="#linearGradient1056"
       id="linearGradient5504"
       x1="80.467186"
       y1="112.44107"
       x2="72.82756"
       y2="130.98741"
       gradientUnits="userSpaceOnUse"
       gradientTransform="translate(0,41.125134)" />
    <linearGradient
       inkscape:collect="always"
       xlink:href="#linearGradient1056"
       id="linearGradient5512"
       x1="99.790436"
       y1="112.64996"
       x2="107.1755"
       y2="130.98428"
       gradientUnits="userSpaceOnUse"
       gradientTransform="translate(0,41.125134)" />
    <linearGradient
       inkscape:collect="always"
       xlink:href="#linearGradient11755"
       id="linearGradient11757"
       x1="57.256004"
       y1="157.65991"
       x2="62.101109"
       y2="157.69226"
       gradientUnits="userSpaceOnUse" />
    <radialGradient
       inkscape:collect="always"
       xlink:href="#linearGradient11862"
       id="radialGradient11846"
       cx="60.266495"
       cy="148.44304"
       fx="60.266495"
       fy="148.44304"
       r="2.4225435"
       gradientUnits="userSpaceOnUse"
       gradientTransform="matrix(-1.4511187,0.92381956,-0.75725877,-1.1894777,260.13025,269.33734)" />
    <linearGradient
       inkscape:collect="always"
       xlink:href="#linearGradient11755"
       id="linearGradient11880"
       gradientUnits="userSpaceOnUse"
       x1="57.256004"
       y1="157.65991"
       x2="62.101109"
       y2="157.69226" />
    <radialGradient
       inkscape:collect="always"
       xlink:href="#linearGradient11862"
       id="radialGradient11882"
       gradientUnits="userSpaceOnUse"
       gradientTransform="matrix(-1.4511187,0.92381956,-0.75725877,-1.1894777,260.13025,269.33734)"
       cx="60.266495"
       cy="148.44304"
       fx="60.266495"
       fy="148.44304"
       r="2.4225435" />
    <linearGradient
       inkscape:collect="always"
       xlink:href="#linearGradient11755"
       id="linearGradient11890"
       gradientUnits="userSpaceOnUse"
       x1="57.256004"
       y1="157.65991"
       x2="62.101109"
       y2="157.69226" />
    <radialGradient
       inkscape:collect="always"
       xlink:href="#linearGradient11862"
       id="radialGradient11892"
       gradientUnits="userSpaceOnUse"
       gradientTransform="matrix(-1.4511187,0.92381956,-0.75725877,-1.1894777,260.13025,269.33734)"
       cx="60.266495"
       cy="148.44304"
       fx="60.266495"
       fy="148.44304"
       r="2.4225435" />
    <linearGradient
       inkscape:collect="always"
       xlink:href="#linearGradient11755"
       id="linearGradient11900"
       gradientUnits="userSpaceOnUse"
       x1="57.256004"
       y1="157.65991"
       x2="62.101109"
       y2="157.69226" />
    <radialGradient
       inkscape:collect="always"
       xlink:href="#linearGradient11862"
       id="radialGradient11902"
       gradientUnits="userSpaceOnUse"
       gradientTransform="matrix(-1.4511187,0.92381956,-0.75725877,-1.1894777,260.13025,269.33734)"
       cx="60.266495"
       cy="148.44304"
       fx="60.266495"
       fy="148.44304"
       r="2.4225435" />
    <linearGradient
       inkscape:collect="always"
       xlink:href="#linearGradient11755"
       id="linearGradient11910"
       gradientUnits="userSpaceOnUse"
       x1="57.256004"
       y1="157.65991"
       x2="62.101109"
       y2="157.69226" />
    <radialGradient
       inkscape:collect="always"
       xlink:href="#linearGradient11862"
       id="radialGradient11912"
       gradientUnits="userSpaceOnUse"
       gradientTransform="matrix(-1.4511187,0.92381956,-0.75725877,-1.1894777,260.13025,269.33734)"
       cx="60.266495"
       cy="148.44304"
       fx="60.266495"
       fy="148.44304"
       r="2.4225435" />
    <linearGradient
       inkscape:collect="always"
       xlink:href="#linearGradient11755"
       id="linearGradient11980"
       gradientUnits="userSpaceOnUse"
       x1="57.256004"
       y1="157.65991"
       x2="62.101109"
       y2="157.69226" />
    <radialGradient
       inkscape:collect="always"
       xlink:href="#linearGradient11862"
       id="radialGradient11982"
       gradientUnits="userSpaceOnUse"
       gradientTransform="matrix(-1.4511187,0.92381956,-0.75725877,-1.1894777,260.13025,269.33734)"
       cx="60.266495"
       cy="148.44304"
       fx="60.266495"
       fy="148.44304"
       r="2.4225435" />
    <linearGradient
       inkscape:collect="always"
       xlink:href="#linearGradient11755"
       id="linearGradient12020"
       gradientUnits="userSpaceOnUse"
       x1="57.256004"
       y1="157.65991"
       x2="62.101109"
       y2="157.69226" />
    <radialGradient
       inkscape:collect="always"
       xlink:href="#linearGradient11862"
       id="radialGradient12022"
       gradientUnits="userSpaceOnUse"
       gradientTransform="matrix(-1.4511187,0.92381956,-0.75725877,-1.1894777,260.13025,269.33734)"
       cx="60.266495"
       cy="148.44304"
       fx="60.266495"
       fy="148.44304"
       r="2.4225435" />
    <linearGradient
       inkscape:collect="always"
       xlink:href="#linearGradient11755"
       id="linearGradient12024"
       gradientUnits="userSpaceOnUse"
       x1="57.256004"
       y1="157.65991"
       x2="62.101109"
       y2="157.69226" />
    <radialGradient
       inkscape:collect="always"
       xlink:href="#linearGradient11862"
       id="radialGradient12026"
       gradientUnits="userSpaceOnUse"
       gradientTransform="matrix(-1.4511187,0.92381956,-0.75725877,-1.1894777,260.13025,269.33734)"
       cx="60.266495"
       cy="148.44304"
       fx="60.266495"
       fy="148.44304"
       r="2.4225435" />
    <linearGradient
       inkscape:collect="always"
       xlink:href="#linearGradient11755"
       id="linearGradient12028"
       gradientUnits="userSpaceOnUse"
       x1="57.256004"
       y1="157.65991"
       x2="62.101109"
       y2="157.69226" />
    <radialGradient
       inkscape:collect="always"
       xlink:href="#linearGradient11862"
       id="radialGradient12030"
       gradientUnits="userSpaceOnUse"
       gradientTransform="matrix(-1.4511187,0.92381956,-0.75725877,-1.1894777,260.13025,269.33734)"
       cx="60.266495"
       cy="148.44304"
       fx="60.266495"
       fy="148.44304"
       r="2.4225435" />
    <linearGradient
       inkscape:collect="always"
       xlink:href="#linearGradient11755"
       id="linearGradient12032"
       gradientUnits="userSpaceOnUse"
       x1="57.256004"
       y1="157.65991"
       x2="62.101109"
       y2="157.69226" />
    <radialGradient
       inkscape:collect="always"
       xlink:href="#linearGradient11862"
       id="radialGradient12034"
       gradientUnits="userSpaceOnUse"
       gradientTransform="matrix(-1.4511187,0.92381956,-0.75725877,-1.1894777,260.13025,269.33734)"
       cx="60.266495"
       cy="148.44304"
       fx="60.266495"
       fy="148.44304"
       r="2.4225435" />
    <linearGradient
       inkscape:collect="always"
       xlink:href="#linearGradient11755"
       id="linearGradient12036"
       gradientUnits="userSpaceOnUse"
       x1="57.256004"
       y1="157.65991"
       x2="62.101109"
       y2="157.69226" />
    <radialGradient
       inkscape:collect="always"
       xlink:href="#linearGradient11862"
       id="radialGradient12038"
       gradientUnits="userSpaceOnUse"
       gradientTransform="matrix(-1.4511187,0.92381956,-0.75725877,-1.1894777,260.13025,269.33734)"
       cx="60.266495"
       cy="148.44304"
       fx="60.266495"
       fy="148.44304"
       r="2.4225435" />
    <linearGradient
       inkscape:collect="always"
       xlink:href="#linearGradient11755"
       id="linearGradient12040"
       gradientUnits="userSpaceOnUse"
       x1="57.256004"
       y1="157.65991"
       x2="62.101109"
       y2="157.69226" />
    <radialGradient
       inkscape:collect="always"
       xlink:href="#linearGradient11862"
       id="radialGradient12042"
       gradientUnits="userSpaceOnUse"
       gradientTransform="matrix(-1.4511187,0.92381956,-0.75725877,-1.1894777,260.13025,269.33734)"
       cx="60.266495"
       cy="148.44304"
       fx="60.266495"
       fy="148.44304"
       r="2.4225435" />
    <linearGradient
       inkscape:collect="always"
       xlink:href="#linearGradient11755"
       id="linearGradient12050"
       gradientUnits="userSpaceOnUse"
       x1="57.256004"
       y1="157.65991"
       x2="62.101109"
       y2="157.69226" />
    <radialGradient
       inkscape:collect="always"
       xlink:href="#linearGradient11862"
       id="radialGradient12052"
       gradientUnits="userSpaceOnUse"
       gradientTransform="matrix(-1.4511187,0.92381956,-0.75725877,-1.1894777,260.13025,269.33734)"
       cx="60.266495"
       cy="148.44304"
       fx="60.266495"
       fy="148.44304"
       r="2.4225435" />
  </defs>
  <g
     inkscape:label="Layer 1"
     inkscape:groupmode="layer"
     id="layer1"
     transform="translate(-25.029252,-105.18892)">
    <path
       id="path479"
       style="fill:#efb551;fill-opacity:1;stroke:none;stroke-width:0.353;stroke-dasharray:none"
       d="m 25.029252,221.22085 v 20.04735 a 79.302261,16.842272 0 0 0 79.302138,16.84239 79.302261,16.842272 0 0 0 79.30266,-16.84239 v -20.04735 a 79.302261,16.842272 0 0 1 -79.30266,16.84238 79.302261,16.842272 0 0 1 -79.302138,-16.84238 z"
       inkscape:transform-center-x="38.314708"
       inkscape:transform-center-y="-9.498707" />
    <ellipse
       style="fill:#fcd592;fill-opacity:1;stroke-width:0.35269"
       id="ellipse541"
       cx="104.3316"
       cy="221.22095"
       rx="79.302261"
       ry="16.842272" />
    <g
       id="g5518"
       transform="matrix(1.6511572,0,0,1.6511572,-43.606564,-66.19085)" />
    <g
       id="g23070"
       transform="translate(0,8.4666671)">
      <g
         id="g4727"
         transform="matrix(1.6511572,0,0,1.6511572,-43.606564,-66.19085)">
        <path
           id="path15186"
           style="fill:#d7edbe;stroke-width:0.352999"
           inkscape:transform-center-x="-0.020088905"
           inkscape:transform-center-y="-0.16832736"
           transform="matrix(0.86956042,0,0,0.86956042,46.842247,1.7308185)"
           d="m 63.150928,153.62096 -6.262338,3.35552 -14.522518,0.002 -6.270923,-3.35339 7.193835,-2.92566 12.660771,-0.002 z" />
        <path
           id="path4625"
           style="fill:#b2da82;fill-opacity:1;stroke-width:0.306954"
           inkscape:transform-center-x="-0.020088905"
           inkscape:transform-center-y="-0.16832736"
           d="m 96.310403,150.3442 -3.13e-4,-12.11292 -12.628067,0.002 v 12.11291 z" />
        <path
           id="path4692"
           style="fill:url(#linearGradient4721);fill-opacity:1;stroke-width:0.306954"
           inkscape:transform-center-x="-0.020088905"
           inkscape:transform-center-y="-0.16832736"
           d="m 101.7489,135.31721 -5.43881,2.91407 3.13e-4,12.11292 5.445387,-2.91783 v -12.10916 z" />
        <path
           id="path4687"
           style="fill:url(#linearGradient4701);fill-opacity:1;stroke-width:0.306954"
           inkscape:transform-center-x="-0.020088905"
           inkscape:transform-center-y="-0.16832736"
           d="m 78.22913,135.31721 v 12.10916 h 0.0094 l -0.0094,0.004 5.452893,2.91595 v -12.11291 z" />
      </g>
      <g
         id="g5259"
         transform="matrix(1.6511572,0,0,1.6511572,-43.606564,-66.19085)">
        <path
           id="path15184"
           style="fill:#d7edbe;stroke-width:0.306954"
           inkscape:transform-center-x="-0.020088905"
           inkscape:transform-center-y="-0.16832736"
           d="m 80.739123,138.70899 -7.636503,3.46007 -13.794803,0.003 -4.107142,-3.45806 8.346954,-2.98151 11.885586,-0.002 z" />
        <path
           id="path4729"
           style="fill:#b2da82;fill-opacity:1;stroke-width:0.306954"
           inkscape:transform-center-x="-0.020088905"
           inkscape:transform-center-y="-0.16832736"
           d="m 73.102665,154.28198 v -12.11292 l -13.794823,0.003 v 12.11261 z" />
        <path
           id="path5089"
           style="fill:url(#linearGradient5114);fill-opacity:1;stroke-width:0.306954"
           inkscape:transform-center-x="-0.020088905"
           inkscape:transform-center-y="-0.16832736"
           d="m 80.728203,138.71418 -7.625538,3.45488 v 12.11292 l 7.636492,-3.46021 v -12.10759 z" />
        <path
           id="path5084"
           style="fill:url(#linearGradient5106);fill-opacity:1;stroke-width:0.306954"
           inkscape:transform-center-x="-0.020088905"
           inkscape:transform-center-y="-0.16832736"
           d="m 55.200723,138.71418 v 12.10759 h 0.01408 l -0.01408,0.005 4.107119,3.45802 v -12.11261 z" />
      </g>
      <g
         id="g5209"
         transform="matrix(1.6511572,0,0,1.6511572,-43.606564,-66.19085)">
        <path
           id="path15176"
           style="fill:#d7edbe;stroke-width:0.352999"
           inkscape:transform-center-x="-0.020088905"
           inkscape:transform-center-y="-0.16832736"
           transform="matrix(0.86956042,0,0,0.86956042,77.252813,19.27157)"
           d="m 54.670568,137.34507 -4.712944,3.97833 -15.863611,0.003 -8.791966,-3.97602 6.093035,-3.42811 13.668129,-0.002 z" />
        <path
           id="path5171"
           style="fill:#b2da82;fill-opacity:1;stroke-width:0.306954"
           inkscape:transform-center-x="-0.020088905"
           inkscape:transform-center-y="-0.16832736"
           d="m 120.69397,154.27353 v -12.11292 l -13.79451,0.003 v 12.11292 z" />
        <path
           id="path5186"
           style="fill:url(#linearGradient5203);fill-opacity:1;stroke-width:0.306954"
           inkscape:transform-center-x="-0.020088905"
           inkscape:transform-center-y="-0.16832736"
           d="m 124.78638,138.70635 -4.09241,3.45426 v 12.11292 l 4.09836,-3.45927 v -12.10791 z" />
        <path
           id="path5181"
           style="fill:url(#linearGradient5195);fill-opacity:1;stroke-width:0.306954"
           inkscape:transform-center-x="-0.020088905"
           inkscape:transform-center-y="-0.16832736"
           d="m 99.254522,138.70635 v 12.10791 h 0.0088 l -0.0088,0.005 7.644938,3.45739 v -12.11292 z" />
      </g>
      <g
         id="g22975">
        <g
           id="g5249"
           transform="matrix(1.6511572,0,0,1.6511572,-43.606564,-66.19085)">
          <path
             id="path15036"
             style="fill:#d7edbe;stroke-width:0.352999"
             inkscape:transform-center-x="-0.020088905"
             inkscape:transform-center-y="-0.16832736"
             transform="matrix(0.86956042,0,0,0.86956042,46.856794,36.837518)"
             d="m 65.674426,121.77823 -7.312085,4.79328 -17.4782,0.003 -7.324348,-4.79077 8.627168,-4.07298 14.850084,-0.003 z" />
          <path
             id="path5211"
             style="fill:#b2da82;fill-opacity:1;stroke-width:0.306954"
             inkscape:transform-center-x="-0.020088905"
             inkscape:transform-center-y="-0.16832736"
             d="M 97.606416,159.01181 V 146.8989 l -15.198498,0.003 v 12.11291 z" />
          <path
             id="path5226"
             style="fill:url(#linearGradient5243);fill-opacity:1;stroke-width:0.306954"
             inkscape:transform-center-x="-0.020088905"
             inkscape:transform-center-y="-0.16832736"
             d="m 103.9566,142.73607 -6.350184,4.16283 v 12.11291 l 6.358324,-4.16783 v -12.10791 z" />
          <path
             id="path5221"
             style="fill:url(#linearGradient5235);fill-opacity:1;stroke-width:0.306954"
             inkscape:transform-center-x="-0.020088905"
             inkscape:transform-center-y="-0.16832736"
             d="m 76.038959,142.73607 v 12.10791 h 0.01064 l -0.01064,0.005 6.368959,4.16595 v -12.11291 z" />
        </g>
        <g
           aria-label="CSA"
           id="text18514"
           style="font-size:4.2731px;line-height:1.25;text-align:center;text-anchor:middle;fill:#86b056;stroke-width:0.160241"
           transform="matrix(1.6511572,0,0,1.6511572,-43.609472,-131.51596)">
          <path
             d="m 88.459602,181.28665 -0.0602,0.27213 c -0.0793,-0.0839 -0.168053,-0.14492 -0.266951,-0.18454 -0.09647,-0.039 -0.204652,-0.0583 -0.325632,-0.0583 -0.238238,0 -0.448553,0.065 -0.638065,0.20014 -0.199195,0.1414 -0.374084,0.3601 -0.528449,0.67446 -0.171814,0.3499 -0.235568,0.64684 -0.172773,0.87003 0.06783,0.23711 0.271599,0.36191 0.607725,0.36191 0.170689,0 0.343007,-0.0381 0.514236,-0.11303 0.168978,-0.0734 0.334304,-0.18144 0.493625,-0.32089 l -0.107953,0.488 c -0.169303,0.12096 -0.344952,0.21434 -0.524954,0.27792 -0.181691,0.0647 -0.365508,0.0974 -0.549111,0.0974 -0.471526,0 -0.757909,-0.18455 -0.852171,-0.52821 -0.08521,-0.31492 0.0066,-0.70191 0.243349,-1.13317 0.207562,-0.37804 0.448301,-0.64382 0.726572,-0.82253 0.260664,-0.16796 0.536468,-0.24792 0.839892,-0.24792 0.119937,0 0.228572,0.0136 0.326718,0.0412 0.100356,0.0271 0.191557,0.0686 0.274155,0.1254 z"
             id="path18693" />
          <path
             d="m 90.126398,181.20784 0.02608,0.2428 c -0.113897,-0.0469 -0.218901,-0.0814 -0.315896,-0.10386 -0.09616,-0.0222 -0.188109,-0.0333 -0.276476,-0.0333 -0.153479,0 -0.273611,0.0263 -0.361745,0.0797 -0.08903,0.0545 -0.139369,0.13399 -0.14993,0.2407 -0.0092,0.0929 0.01367,0.16539 0.06958,0.21579 0.05803,0.0503 0.173034,0.0917 0.345676,0.12379 l 0.192611,0.0393 c 0.241324,0.0457 0.42558,0.12834 0.553757,0.25098 0.134548,0.1266 0.218883,0.30511 0.250433,0.54426 0.04085,0.30966 -0.02072,0.56443 -0.194092,0.74887 -0.181135,0.19418 -0.470761,0.29516 -0.861624,0.29516 -0.147443,0 -0.303232,-0.0219 -0.46597,-0.0652 -0.159529,-0.0429 -0.3208,-0.10542 -0.48249,-0.1866 l 0.07591,-0.49745 c 0.140789,0.10418 0.285552,0.18478 0.432784,0.24009 0.149546,0.0562 0.300094,0.0846 0.449878,0.0846 0.227302,0 0.400956,-0.055 0.518265,-0.16256 0.113849,-0.10437 0.162625,-0.24804 0.149368,-0.42604 -0.01102,-0.14799 -0.05874,-0.25918 -0.141978,-0.33701 -0.0801,-0.076 -0.20652,-0.13174 -0.379148,-0.16837 l -0.204191,-0.042 c -0.246265,-0.0517 -0.417244,-0.13097 -0.513456,-0.23562 -0.0929,-0.10104 -0.124949,-0.23591 -0.09968,-0.39971 0.02748,-0.17814 0.112946,-0.31053 0.25383,-0.40315 0.136815,-0.0894 0.313072,-0.13286 0.532363,-0.13286 0.09398,0 0.189947,0.007 0.288326,0.0216 0.09896,0.0145 0.201392,0.0365 0.307815,0.0661 z"
             id="path18695" />
          <path
             d="m 91.48015,181.39061 -0.05686,1.1448 h 0.948653 z m -0.241251,-0.23973 h 0.309377 l 2.211415,2.6224 h -0.433653 l -0.693694,-0.9055 h -1.223825 l -0.03391,0.9055 h -0.439847 z"
             id="path18697" />
        </g>
      </g>
      <g
         id="g22964">
        <g
           id="g5437"
           transform="matrix(1.6511572,0,0,1.6511572,-43.606564,-66.19085)">
          <path
             id="path15182"
             style="fill:#d7edbe;stroke-width:0.352999"
             inkscape:transform-center-x="-0.020088905"
             inkscape:transform-center-y="-0.16832736"
             transform="matrix(0.86956042,0,0,0.86956042,16.460774,54.403465)"
             d="m 71.737509,107.16731 -10.986947,5.88708 -19.458695,0.003 -4.981627,-5.88432 12.094281,-4.91861 16.255811,-0.003 z" />
          <path
             id="path5261"
             style="fill:#b2da82;fill-opacity:1;stroke-width:0.306954"
             inkscape:transform-center-x="-0.020088905"
             inkscape:transform-center-y="-0.16832736"
             d="m 69.286922,164.82349 v -12.1126 l -16.920464,0.003 v 12.11292 z" />
          <path
             id="path5414"
             style="fill:url(#linearGradient5431);fill-opacity:1;stroke-width:0.306954"
             inkscape:transform-center-x="-0.020088905"
             inkscape:transform-center-y="-0.16832736"
             d="m 78.830973,147.59694 -9.544051,5.11395 v 12.1126 l 9.554066,-5.11895 v -12.1076 z" />
          <path
             id="path5409"
             style="fill:url(#linearGradient5423);fill-opacity:1;stroke-width:0.306954"
             inkscape:transform-center-x="-0.020088905"
             inkscape:transform-center-y="-0.16832736"
             d="m 48.034626,147.59694 v 12.1076 h 0.01314 l -0.01314,0.005 4.331832,5.11676 v -12.11292 z" />
        </g>
        <path
           d="m 55.057876,173.09489 c -0.358477,0 -0.670939,0.10468 -0.940642,0.31639 -0.272474,0.21526 -0.463911,0.51437 -0.573275,0.90299 -0.11218,0.39863 -0.09029,0.72228 0.07027,0.9652 0.165177,0.24721 0.445811,0.37245 0.839709,0.37245 0.393898,0 0.73191,-0.12532 1.010336,-0.37245 0.275362,-0.24292 0.450207,-0.56657 0.526401,-0.9652 0.07427,-0.38862 0.02419,-0.68773 -0.146557,-0.90299 -0.166354,-0.21178 -0.427765,-0.31639 -0.786245,-0.31639 z m 0.07295,-0.30884 c 0.505539,0 0.883261,0.1316 1.137061,0.39873 0.259364,0.2715 0.350775,0.64512 0.267941,1.12949 -0.08566,0.50086 -0.322193,0.91449 -0.71376,1.23219 -0.400239,0.32341 -0.888684,0.48792 -1.458448,0.48792 -0.571576,0 -0.984112,-0.16446 -1.233318,-0.48792 -0.241878,-0.31621 -0.282944,-0.72988 -0.131482,-1.23219 0.146061,-0.48437 0.414026,-0.85799 0.801685,-1.12949 0.381678,-0.26718 0.823163,-0.39873 1.330314,-0.39873 z"
           id="path18641"
           style="font-size:4.2731px;line-height:1.25;text-align:center;text-anchor:middle;fill:#86b056;stroke-width:0.264583" />
        <path
           d="m 59.69901,174.45922 -0.08137,1.50676 h -0.499622 l 0.106648,-1.49409 c 0.01585,-0.22227 -0.02488,-0.38626 -0.121442,-0.49403 -0.0958,-0.107 -0.247259,-0.16 -0.454955,-0.16 -0.249569,0 -0.45351,0.0639 -0.612969,0.19271 -0.161004,0.12994 -0.256337,0.30931 -0.285178,0.53983 l -0.177121,1.41563 h -0.502337 l 0.344118,-2.41334 h 0.460169 l -0.04354,0.34799 c 0.127304,-0.13572 0.268539,-0.23633 0.424064,-0.30252 0.156397,-0.0659 0.331126,-0.0987 0.524752,-0.0987 0.3194,0 0.55553,0.0789 0.709775,0.23805 0.156199,0.15966 0.22644,0.3989 0.20901,0.72172 z"
           id="path18643"
           style="font-size:4.2731px;line-height:1.25;text-align:center;text-anchor:middle;fill:#86b056;stroke-width:0.264583" />
        <path
           d="m 60.676956,172.71925 h 0.443199 l -0.0064,3.24673 h -0.49962 z"
           id="path18645"
           style="font-size:4.2731px;line-height:1.25;text-align:center;text-anchor:middle;fill:#86b056;stroke-width:0.264583" />
        <path
           d="m 62.076173,173.55264 h 0.457681 l 0.124976,2.41334 h -0.499629 z m -0.02867,-0.83339 h 0.443199 l 0.02272,0.43869 H 62.0626 Z"
           id="path18647"
           style="font-size:4.2731px;line-height:1.25;text-align:center;text-anchor:middle;fill:#86b056;stroke-width:0.264583" />
        <path
           d="m 65.9669,174.45922 0.265302,1.50676 h -0.499621 l -0.237106,-1.49409 c -0.03527,-0.22227 -0.113748,-0.38626 -0.235108,-0.49403 -0.120402,-0.107 -0.284083,-0.16 -0.491779,-0.16 -0.249569,0 -0.438802,0.0639 -0.568634,0.19271 -0.131085,0.12994 -0.185172,0.30931 -0.160971,0.53983 l 0.148571,1.41563 h -0.502338 l -0.211125,-2.41334 h 0.460169 l 0.03652,0.34799 c 0.09608,-0.13572 0.214165,-0.23633 0.354463,-0.30252 0.141256,-0.0659 0.308426,-0.0987 0.502052,-0.0987 0.3194,0 0.573677,0.0789 0.764542,0.23805 0.192953,0.15966 0.318219,0.3989 0.375057,0.72172 z"
           id="path18649"
           style="font-size:4.2731px;line-height:1.25;text-align:center;text-anchor:middle;fill:#86b056;stroke-width:0.264583" />
        <path
           d="m 69.420938,174.60787 0.0583,0.19354 h -2.204121 c 0.08238,0.27704 0.230931,0.49226 0.446152,0.64263 0.218962,0.15042 0.493254,0.22629 0.821118,0.22629 0.189909,0 0.368112,-0.02 0.534256,-0.0598 0.167487,-0.0396 0.326962,-0.0991 0.478144,-0.17783 l 0.118817,0.39981 c -0.159369,0.0654 -0.328426,0.11541 -0.506974,0.14992 -0.178986,0.0345 -0.365717,0.0519 -0.55987,0.0519 -0.486294,0 -0.899757,-0.12235 -1.236089,-0.36403 -0.328937,-0.23762 -0.531549,-0.55279 -0.610263,-0.9402 -0.07911,-0.38938 -0.01536,-0.6903 0.18735,-0.90829 0.200723,-0.2158 0.508387,-0.32239 0.925426,-0.32239 0.374012,0 0.696349,0.0961 0.970001,0.29019 0.278991,0.1957 0.471933,0.46692 0.577753,0.81824 z m -0.508609,-0.11475 c -0.06345,-0.2115 -0.182664,-0.37793 -0.357137,-0.50091 -0.171229,-0.12186 -0.370122,-0.18239 -0.59785,-0.18239 -0.257866,0 -0.450754,0.0584 -0.579513,0.17626 -0.128212,0.11872 -0.180275,0.2879 -0.155027,0.50915 z"
           id="path18651"
           style="font-size:4.2731px;line-height:1.25;text-align:center;text-anchor:middle;fill:#86b056;stroke-width:0.264583" />
        <path
           d="m 56.343487,178.85487 -0.08716,0.57133 c -0.21599,-0.10782 -0.421978,-0.18785 -0.618562,-0.24031 -0.195946,-0.0522 -0.38906,-0.0783 -0.579823,-0.0783 -0.331327,0 -0.600346,0.0619 -0.808268,0.18632 -0.207524,0.12549 -0.338111,0.30548 -0.391116,0.54196 -0.04508,0.20108 -0.01834,0.35508 0.08109,0.46062 0.102603,0.10419 0.321095,0.18896 0.655965,0.2542 l 0.369372,0.0793 c 0.459819,0.0913 0.784889,0.25396 0.975304,0.49003 0.19558,0.23717 0.265032,0.56086 0.205237,0.97596 -0.0732,0.50816 -0.294606,0.90337 -0.66683,1.17752 -0.375682,0.27841 -0.888398,0.41922 -1.533779,0.41922 -0.243455,0 -0.496569,-0.0302 -0.758694,-0.0907 -0.258967,-0.0603 -0.520633,-0.14894 -0.784359,-0.26556 l 0.183548,-0.75611 c 0.235228,0.16445 0.476373,0.28945 0.722658,0.37407 0.247466,0.085 0.500362,0.12763 0.757807,0.12763 0.390682,0 0.706963,-0.0827 0.947173,-0.24721 0.238015,-0.16297 0.380632,-0.39278 0.428865,-0.68691 0.04146,-0.25283 -3.68e-4,-0.44795 -0.124282,-0.58725 -0.120749,-0.13821 -0.340063,-0.24111 -0.657691,-0.30936 l -0.379363,-0.0789 c -0.461882,-0.0982 -0.775727,-0.25081 -0.941999,-0.45646 -0.164257,-0.20316 -0.202375,-0.48161 -0.117232,-0.83156 0.09636,-0.39603 0.310542,-0.70136 0.640844,-0.92085 0.327781,-0.2165 0.732376,-0.32364 1.217127,-0.32364 0.207752,0 0.416251,0.0178 0.62585,0.0535 0.210075,0.0357 0.422721,0.0895 0.638314,0.16148 z"
           id="path18653"
           style="font-size:4.2731px;line-height:1.25;text-align:center;text-anchor:middle;fill:#86b056;stroke-width:0.264583" />
        <path
           d="m 58.07197,178.87197 -0.09137,0.93362 h 1.166551 l -0.02719,0.43801 h -1.18223 l -0.195912,2.0018 c -0.0315,0.32186 -0.01057,0.53174 0.06337,0.62556 0.07663,0.0943 0.244703,0.14167 0.503898,0.14167 h 0.638985 l -0.03542,0.57054 h -0.649169 c -0.487736,0 -0.814199,-0.0989 -0.978055,-0.29493 -0.161813,-0.19642 -0.212866,-0.54703 -0.155671,-1.04282 l 0.230889,-2.0018 H 56.93953 l 0.05611,-0.43802 h 0.415527 l 0.107688,-0.93361 z"
           id="path18655"
           style="font-size:4.2731px;line-height:1.25;text-align:center;text-anchor:middle;fill:#86b056;stroke-width:0.264583" />
        <path
           d="m 61.228556,180.2002 c -0.307369,0 -0.55215,0.1202 -0.736346,0.3631 -0.186865,0.24441 -0.287536,0.5861 -0.300192,1.03097 -0.01304,0.45666 0.07072,0.82543 0.253515,1.1003 0.187961,0.27676 0.451425,0.41676 0.788183,0.41676 0.332238,0 0.592949,-0.14117 0.779918,-0.42035 0.184071,-0.27482 0.267651,-0.64235 0.253155,-1.09671 -0.01403,-0.4405 -0.115878,-0.78121 -0.303672,-1.0278 -0.18509,-0.24508 -0.429267,-0.36627 -0.734561,-0.36627 z m -8.43e-4,-0.47602 c 0.491245,0 0.881595,0.15719 1.17529,0.47602 0.299484,0.32517 0.466345,0.78614 0.496934,1.39407 0.03159,0.62787 -0.09595,1.13735 -0.388121,1.51706 -0.298554,0.38545 -0.725855,0.58128 -1.277069,0.58128 -0.553511,0 -0.982637,-0.19583 -1.282522,-0.58128 -0.291241,-0.37971 -0.419475,-0.88919 -0.390106,-1.51706 0.02843,-0.60793 0.192611,-1.0689 0.488877,-1.39407 0.292593,-0.31888 0.683425,-0.47602 1.176717,-0.47602 z"
           id="path18657"
           style="font-size:4.2731px;line-height:1.25;text-align:center;text-anchor:middle;fill:#86b056;stroke-width:0.264583" />
        <path
           d="m 65.820501,180.33387 c -0.06983,-0.0375 -0.144312,-0.0644 -0.223534,-0.0809 -0.07734,-0.0187 -0.161698,-0.0279 -0.253154,-0.0279 -0.324229,0 -0.5621,0.10584 -0.715081,0.31934 -0.153063,0.21422 -0.210637,0.52771 -0.170509,0.94599 l 0.200778,2.09285 h -0.63543 l -0.296399,-3.77757 h 0.569426 l 0.05128,0.53453 c 0.09996,-0.21097 0.240306,-0.36542 0.421171,-0.46489 0.179536,-0.10088 0.405005,-0.15108 0.677237,-0.15108 0.03888,0 0.08226,0.003 0.130127,0.008 0.04762,0.003 0.100803,0.0116 0.159585,0.0211 z"
           id="path18659"
           style="font-size:4.2731px;line-height:1.25;text-align:center;text-anchor:middle;fill:#86b056;stroke-width:0.264583" />
        <path
           d="m 69.550022,181.4369 0.0741,0.3026 h -2.758484 c 0.09819,0.43505 0.281129,0.7745 0.549644,1.01246 0.273973,0.23877 0.619147,0.35937 1.032751,0.35937 0.239571,0 0.464386,-0.0317 0.673886,-0.0949 0.211012,-0.0631 0.411664,-0.15735 0.601507,-0.28226 l 0.153128,0.63586 c -0.20087,0.10435 -0.414341,0.1844 -0.640053,0.23963 -0.226406,0.0553 -0.462745,0.083 -0.708495,0.083 -0.615521,0 -1.137155,-0.19584 -1.558083,-0.58129 -0.409842,-0.37732 -0.657393,-0.87524 -0.746698,-1.48341 -0.08913,-0.60693 -0.0023,-1.07306 0.254396,-1.40913 0.253218,-0.33141 0.635834,-0.49462 1.151641,-0.49462 0.46259,0 0.860911,0.14711 1.199539,0.4451 0.346451,0.30145 0.587396,0.72106 0.721239,1.26763 z m -0.635421,-0.17902 c -0.07907,-0.32878 -0.227221,-0.58663 -0.443739,-0.77666 -0.212013,-0.18787 -0.45835,-0.28102 -0.7408,-0.28102 -0.319831,0 -0.559986,0.09 -0.721787,0.27158 -0.161483,0.18356 -0.229482,0.44546 -0.202255,0.7894 z"
           id="path18661"
           style="font-size:4.2731px;line-height:1.25;text-align:center;text-anchor:middle;fill:#86b056;stroke-width:0.264583" />
      </g>
      <g
         id="g22992">
        <g
           id="g5477"
           transform="matrix(1.6511572,0,0,1.6511572,-43.606564,-66.19085)">
          <path
             id="path15178"
             style="fill:#d7edbe;stroke-width:0.352999"
             inkscape:transform-center-x="-0.020088905"
             inkscape:transform-center-y="-0.16832736"
             transform="matrix(0.86956042,0,0,0.86956042,77.252813,54.395067)"
             d="m 62.927099,107.17216 -4.967944,5.88713 -19.460051,0.003 -11.001523,-5.88437 7.066308,-4.91858 16.256757,-0.003 z" />
          <path
             id="path5439"
             style="fill:#b2da82;fill-opacity:1;stroke-width:0.306954"
             inkscape:transform-center-x="-0.020088905"
             inkscape:transform-center-y="-0.16832736"
             d="m 127.65195,164.81936 v -12.1126 l -16.92172,0.003 v 12.1126 z" />
          <path
             id="path5454"
             style="fill:url(#linearGradient5471);fill-opacity:1;stroke-width:0.306954"
             inkscape:transform-center-x="-0.020088905"
             inkscape:transform-center-y="-0.16832736"
             d="m 131.9675,147.59281 -4.31555,5.11395 v 12.1126 l 4.31993,-5.11926 v -12.10729 z" />
          <path
             id="path5449"
             style="fill:url(#linearGradient5463);fill-opacity:1;stroke-width:0.306954"
             inkscape:transform-center-x="-0.020088905"
             inkscape:transform-center-y="-0.16832736"
             d="m 101.16364,147.59281 v 12.10729 h 0.008 l -0.008,0.005 9.56659,5.11676 v -12.1126 z" />
        </g>
        <g
           aria-label="Mutual
Aid"
           id="text18504"
           style="font-size:4.2731px;line-height:1.25;text-align:center;text-anchor:middle;fill:#86b056;stroke-width:0.160241"
           transform="matrix(1.6511572,0,0,1.6511572,-43.858664,-133.16681)">
          <path
             d="m 110.82698,185.33655 h 0.53776 l 0.50767,1.45065 0.85728,-1.45065 h 0.53776 l -0.19103,2.16946 h -0.37146 l 0.18606,-1.91727 -0.8621,1.48176 h -0.37874 l -0.5087,-1.48176 -0.27121,1.91727 h -0.36958 z"
             id="path18564" />
          <path
             d="m 113.82898,186.83909 0.0697,-0.98217 h 0.3331 l -0.0608,0.97178 c -0.01,0.15789 0.0212,0.27737 0.0936,0.35774 0.0727,0.0797 0.18675,0.11964 0.34187,0.11964 0.1864,0 0.33546,-0.048 0.4468,-0.14379 0.11207,-0.0953 0.17089,-0.22449 0.17683,-0.38693 l 0.0336,-0.91844 h 0.3331 l -0.0464,1.64909 h -0.34695 l 0.01,-0.26211 c -0.0877,0.10322 -0.18852,0.18048 -0.3024,0.23146 -0.11286,0.0501 -0.24301,0.0752 -0.39025,0.0752 -0.24288,0 -0.42335,-0.0614 -0.54088,-0.18362 -0.11684,-0.1215 -0.16678,-0.29792 -0.15046,-0.52783 z"
             id="path18566" />
          <path
             d="m 116.61352,185.41242 -10e-4,0.4445 h 0.68611 l 0.003,0.20318 H 116.612 l -0.002,0.88765 c -3.5e-4,0.13677 0.0225,0.22511 0.0686,0.26438 0.0474,0.0394 0.14308,0.0591 0.28681,0.0591 h 0.35435 l 0.003,0.23484 h -0.35638 c -0.26775,0 -0.45234,-0.0404 -0.55348,-0.12081 -0.10073,-0.0812 -0.14979,-0.22744 -0.14748,-0.43746 l 0.01,-0.88765 h -0.24564 l 0.003,-0.20318 h 0.24439 l 0.005,-0.4445 z"
             id="path18568" />
          <path
             d="m 117.72668,186.83909 -0.0245,-0.98217 h 0.3331 l 0.0324,0.97178 c 0.005,0.15789 0.0478,0.27737 0.12792,0.35774 0.0804,0.0797 0.19823,0.11964 0.35335,0.11964 0.1864,0 0.33085,-0.048 0.43302,-0.14379 0.10292,-0.0953 0.14935,-0.22449 0.13972,-0.38693 l -0.0545,-0.91844 h 0.3331 l 0.1117,1.64909 h -0.34695 l -0.0156,-0.26211 c -0.0778,0.10322 -0.17121,0.18048 -0.28021,0.23146 -0.10805,0.0501 -0.2358,0.0752 -0.38304,0.0752 -0.24287,0 -0.42923,-0.0614 -0.55848,-0.18362 -0.1285,-0.1215 -0.19535,-0.29792 -0.20108,-0.52783 z"
             id="path18570" />
          <path
             d="m 121.09484,186.66025 c -0.27459,0 -0.4624,0.025 -0.56364,0.0752 -0.10149,0.0503 -0.14684,0.13634 -0.13581,0.25863 0.009,0.098 0.0558,0.17627 0.14106,0.2347 0.0866,0.0576 0.19949,0.0864 0.33838,0.0864 0.19144,0 0.33874,-0.0546 0.44147,-0.16346 0.10332,-0.10925 0.14434,-0.25318 0.12359,-0.43106 l -0.007,-0.0605 z m 0.66391,-0.11152 0.11968,0.95728 h -0.34695 l -0.0302,-0.25908 c -0.0669,0.10324 -0.15654,0.18 -0.26901,0.22996 -0.11286,0.0491 -0.25495,0.0737 -0.4261,0.0737 -0.21645,0 -0.39325,-0.0491 -0.52992,-0.14703 -0.13486,-0.0984 -0.20873,-0.22914 -0.22202,-0.39148 -0.0154,-0.18778 0.0508,-0.32822 0.19777,-0.42228 0.14754,-0.0936 0.37478,-0.14028 0.68224,-0.14028 h 0.47404 l -0.003,-0.0262 c -0.0143,-0.12275 -0.0764,-0.21696 -0.18616,-0.28303 -0.10826,-0.0668 -0.25379,-0.10012 -0.43686,-0.10012 -0.1164,0 -0.22871,0.0109 -0.33703,0.0328 -0.10843,0.0219 -0.21176,0.0549 -0.31007,0.0988 l -0.0208,-0.24267 c 0.11885,-0.0369 0.23472,-0.0642 0.34771,-0.0821 0.11279,-0.0188 0.22341,-0.0282 0.33192,-0.0282 0.29299,0 0.51871,0.0593 0.67787,0.17858 0.16011,0.11995 0.25591,0.30316 0.28694,0.55137 z"
             id="path18572" />
          <path
             d="m 122.272,185.25 h 0.328 l 0.34002,2.25601 h -0.34695 z"
             id="path18574" />
          <path
             d="m 114.86178,189.54334 -0.6135,1.29206 h 1.11862 z m -0.20957,-0.33345 h 0.44961 l 1.08684,2.63454 h -0.43756 l -0.2641,-0.70614 h -1.38059 l -0.32434,0.70614 h -0.44382 z"
             id="path18576" />
          <path
             d="m 116.63008,189.83917 h 0.36654 l 0.013,2.00526 h -0.38338 z m 10e-4,-0.73378 h 0.36038 l 0.003,0.38904 h -0.36365 z"
             id="path18578" />
          <path
             d="m 119.24867,190.13212 -0.0592,-1.02673 h 0.36038 l 0.18103,2.73904 h -0.38339 l -0.018,-0.31246 c -0.0731,0.12348 -0.16983,0.21591 -0.29008,0.27691 -0.11925,0.0599 -0.26522,0.0899 -0.43768,0.0899 -0.28232,0 -0.51553,-0.10114 -0.69842,-0.30209 -0.1799,-0.19918 -0.27253,-0.45842 -0.279,-0.77564 -0.006,-0.31277 0.0737,-0.56194 0.23905,-0.74958 0.1653,-0.18605 0.38208,-0.27848 0.65139,-0.27848 0.16451,0 0.30649,0.0279 0.42616,0.0838 0.12124,0.0549 0.22382,0.13991 0.30782,0.25526 z m -1.23741,0.68895 c 0.007,0.24352 0.0696,0.43674 0.18807,0.5783 0.12055,0.14122 0.28199,0.21217 0.48376,0.21217 0.20177,0 0.35706,-0.0709 0.46536,-0.21217 0.10756,-0.14156 0.15401,-0.33478 0.13996,-0.5783 -0.0139,-0.24089 -0.0812,-0.42776 -0.20137,-0.56194 -0.11953,-0.13453 -0.27646,-0.20148 -0.47133,-0.20148 -0.19486,0 -0.34598,0.0669 -0.45385,0.20148 -0.10722,0.13418 -0.1576,0.32105 -0.1506,0.56194 z"
             id="path18580" />
        </g>
      </g>
      <g
         id="g22904">
        <path
           id="path15180"
           style="fill:#d7edbe;stroke-width:0.352999"
           inkscape:transform-center-x="-0.020088905"
           inkscape:transform-center-y="-0.16832736"
           transform="matrix(1.435781,0,0,1.435781,33.761368,52.600363)"
           d="m 69.366748,93.859021 -8.770316,7.401749 -21.944416,0.004 -8.785623,-7.398692 10.766638,-6.056765 17.954858,-0.0031 z" />
        <path
           id="path5479"
           style="fill:#b2da82;fill-opacity:1;stroke-width:0.306954"
           inkscape:transform-center-x="-0.020088905"
           inkscape:transform-center-y="-0.16832736"
           d="m 99.549027,172.10941 v -12.1126 l -19.081842,0.003 v 12.1126 z"
           transform="matrix(1.6511572,0,0,1.6511572,-43.606564,-66.19085)" />
        <path
           id="path5495"
           style="fill:url(#linearGradient5512);fill-opacity:1;stroke-width:0.306954"
           inkscape:transform-center-x="-0.020088905"
           inkscape:transform-center-y="-0.16832736"
           d="m 107.16893,153.5662 -7.619903,6.43061 v 12.1126 l 7.626473,-6.43624 V 153.5662 Z"
           transform="matrix(1.6511572,0,0,1.6511572,-43.606564,-66.19085)" />
        <path
           id="path5490"
           style="fill:url(#linearGradient5504);fill-opacity:1;stroke-width:0.306954"
           inkscape:transform-center-x="-0.020088905"
           inkscape:transform-center-y="-0.16832736"
           d="m 72.827563,153.5662 v 12.10697 h 0.01001 l -0.01001,0.006 7.639622,6.43374 v -12.1126 z"
           transform="matrix(1.6511572,0,0,1.6511572,-43.606564,-66.19085)" />
        <g
           aria-label="Crop
Planning"
           id="text18498"
           style="font-size:4.2731px;line-height:1.25;text-align:center;text-anchor:middle;fill:#86b056;stroke-width:0.160241"
           transform="matrix(1.6511572,0,0,1.6511572,1.5672507,-124.39857)">
          <path
             d="m 60.888553,185.88162 -0.01916,0.2773 c -0.105535,-0.0831 -0.219624,-0.14483 -0.342486,-0.18554 -0.121383,-0.0406 -0.252387,-0.0608 -0.393302,-0.0608 -0.277494,0 -0.497949,0.0677 -0.662679,0.20431 -0.166392,0.13717 -0.267787,0.3385 -0.303387,0.60702 -0.03622,0.2732 0.01299,0.48638 0.149352,0.63652 0.138018,0.15085 0.355512,0.22692 0.651317,0.22692 0.150213,0 0.293781,-0.023 0.430355,-0.0688 0.137263,-0.0457 0.267723,-0.11434 0.391095,-0.20567 l -0.0212,0.30675 c -0.127838,0.0708 -0.262507,0.12409 -0.403782,0.15975 -0.140481,0.0358 -0.287814,0.0537 -0.441724,0.0537 -0.395266,0 -0.693706,-0.10268 -0.893061,-0.30574 -0.196264,-0.20101 -0.268473,-0.47021 -0.219747,-0.80343 0.04765,-0.32585 0.191007,-0.57681 0.42843,-0.75699 0.234212,-0.17852 0.532282,-0.26684 0.896669,-0.26684 0.144035,0 0.278123,0.0152 0.40249,0.0458 0.125814,0.0298 0.2427,0.075 0.350822,0.13578 z"
             id="path18666" />
          <path
             d="m 62.431633,186.44774 c -0.03416,-0.0162 -0.07164,-0.0278 -0.112462,-0.0349 -0.03968,-0.008 -0.08381,-0.0121 -0.132428,-0.0121 -0.17235,0 -0.306267,0.0457 -0.402257,0.13752 -0.09553,0.0916 -0.146868,0.22466 -0.153589,0.40049 l -0.03253,0.85108 H 61.27532 l 0.07869,-1.57152 h 0.304422 l -0.0089,0.23214 c 0.06746,-0.0912 0.152925,-0.15833 0.25648,-0.2017 0.103227,-0.0441 0.227559,-0.0661 0.373261,-0.0661 0.02081,0 0.0438,0.001 0.06897,0.004 0.02518,0.002 0.0531,0.005 0.08374,0.009 z"
             id="path18668" />
          <path
             d="m 63.396198,186.38999 c -0.163444,0 -0.291723,0.0519 -0.3854,0.15638 -0.09445,0.1044 -0.141147,0.24921 -0.139518,0.43576 0.0017,0.18922 0.0516,0.34035 0.150439,0.45204 0.100802,0.11166 0.237648,0.16784 0.409909,0.16784 0.169949,0 0.302343,-0.0567 0.396587,-0.16929 0.09346,-0.11168 0.135177,-0.26232 0.125827,-0.45059 -0.0092,-0.18471 -0.06432,-0.32908 -0.164906,-0.4344 -0.09982,-0.10537 -0.230598,-0.15774 -0.392938,-0.15774 z m -0.0061,-0.20736 c 0.262919,0 0.472688,0.0688 0.630573,0.20736 0.159596,0.14012 0.24787,0.33665 0.263751,0.59214 0.01613,0.25956 -0.04972,0.46704 -0.19905,0.61988 -0.151087,0.1536 -0.367193,0.23105 -0.647028,0.23105 -0.281002,0 -0.502214,-0.0774 -0.662271,-0.23105 -0.157111,-0.15284 -0.234516,-0.36032 -0.233558,-0.61988 9.44e-4,-0.25549 0.07717,-0.45202 0.227476,-0.59214 0.14979,-0.13861 0.356092,-0.20736 0.620107,-0.20736 z"
             id="path18670" />
          <path
             d="m 65.155004,187.54193 0.08354,0.8973 h -0.330743 l -0.180449,-2.22094 h 0.304423 l 0.02111,0.22676 c 0.05564,-0.0894 0.129664,-0.15517 0.222119,-0.19764 0.09315,-0.0432 0.206986,-0.0648 0.341732,-0.0648 0.223482,0 0.414198,0.0714 0.573476,0.21541 0.162182,0.14562 0.261493,0.3396 0.297049,0.58409 0.03623,0.24908 -0.0076,0.4535 -0.133029,0.61107 -0.125763,0.15944 -0.308132,0.23986 -0.545993,0.23986 -0.143415,0 -0.269546,-0.0239 -0.378108,-0.0715 -0.107119,-0.0485 -0.198872,-0.12179 -0.275127,-0.21962 z m 1.008615,-0.5598 c -0.02509,-0.1884 -0.09135,-0.3341 -0.198379,-0.43847 -0.105185,-0.10444 -0.238071,-0.15634 -0.39929,-0.15634 -0.161219,0 -0.282912,0.0519 -0.365575,0.15634 -0.0823,0.10437 -0.115029,0.25007 -0.09749,0.43847 0.01779,0.19111 0.07944,0.34322 0.185415,0.45494 0.107914,0.11169 0.246613,0.16788 0.415424,0.16788 0.168811,0 0.294217,-0.0562 0.375711,-0.16788 0.08184,-0.11172 0.109639,-0.26383 0.08418,-0.45494 z"
             id="path18672" />
          <path
             d="m 55.121727,189.75831 -0.255426,0.99295 h 0.491721 c 0.181975,0 0.332892,-0.0445 0.452221,-0.13301 0.118632,-0.088 0.195609,-0.21254 0.231164,-0.37264 0.03491,-0.15723 0.01323,-0.27753 -0.06444,-0.3618 -0.07723,-0.0838 -0.203678,-0.1255 -0.379673,-0.1255 z m -0.30217,-0.28142 h 0.845549 c 0.310282,0 0.530334,0.0639 0.661019,0.19267 0.133341,0.12875 0.174109,0.31995 0.120731,0.57605 -0.05482,0.26299 -0.180018,0.46484 -0.376212,0.60296 -0.196696,0.13939 -0.45934,0.20957 -0.786572,0.20957 h -0.496714 l -0.299212,1.16316 H 54.07807 Z"
             id="path18674" />
          <path
             d="m 57.114942,189.3715 h 0.339945 l -0.512375,2.8498 h -0.373535 z"
             id="path18676" />
          <path
             d="m 58.891433,191.12739 c -0.291388,0 -0.497695,0.0319 -0.619301,0.096 -0.122116,0.0643 -0.194908,0.17465 -0.218169,0.33201 -0.01871,0.12653 0.009,0.22797 0.08353,0.30383 0.07641,0.0749 0.189266,0.11251 0.338309,0.11251 0.205437,0 0.378509,-0.0712 0.518263,-0.21249 0.139973,-0.14136 0.222254,-0.3268 0.24751,-0.55473 l 0.0085,-0.0771 z m 0.733372,-0.1419 -0.122363,1.23581 h -0.373534 l 0.0375,-0.33847 c -0.09962,0.13452 -0.216897,0.23483 -0.35161,0.30028 -0.135103,0.0644 -0.295061,0.0967 -0.479462,0.0967 -0.233212,0 -0.40937,-0.0645 -0.527752,-0.19273 -0.115877,-0.12852 -0.15653,-0.29847 -0.123006,-0.5085 0.03855,-0.24149 0.149615,-0.4211 0.332576,-0.54092 0.182832,-0.11889 0.436267,-0.17799 0.76137,-0.17799 h 0.501257 l 0.0037,-0.0332 c 0.01717,-0.15493 -0.02356,-0.27339 -0.121631,-0.35625 -0.09612,-0.0836 -0.240105,-0.12521 -0.432367,-0.12521 -0.122232,0 -0.243185,0.0137 -0.363022,0.041 -0.120058,0.0274 -0.237937,0.0686 -0.353792,0.12374 l 0.04678,-0.30306 c 0.134879,-0.0458 0.263843,-0.0798 0.387065,-0.102 0.123199,-0.0233 0.241493,-0.035 0.355028,-0.035 0.306544,0 0.527274,0.0736 0.663204,0.22196 0.137297,0.14984 0.191163,0.37988 0.160079,0.69381 z"
             id="path18678" />
          <path
             d="m 62.181539,190.91687 -0.01969,1.30443 h -0.373535 l 0.03477,-1.29332 c 0.0052,-0.19501 -0.03067,-0.33933 -0.107325,-0.43438 -0.07617,-0.0944 -0.193038,-0.14145 -0.350959,-0.14145 -0.189761,0 -0.342466,0.0565 -0.458777,0.17027 -0.117198,0.11459 -0.182468,0.27221 -0.195261,0.47421 l -0.07756,1.22467 h -0.375565 l 0.15821,-2.1043 h 0.350627 l -0.01953,0.3084 c 0.09153,-0.1201 0.195176,-0.20925 0.311143,-0.268 0.116772,-0.0585 0.248783,-0.0877 0.396378,-0.0877 0.24347,0 0.42585,0.0701 0.548008,0.21132 0.123349,0.14137 0.183354,0.35233 0.179074,0.63583 z"
             id="path18680" />
          <path
             d="m 64.70812,190.91687 0.08877,1.30443 h -0.373534 l -0.07277,-1.29332 c -0.01097,-0.19501 -0.05889,-0.33933 -0.143444,-0.43438 -0.08402,-0.0944 -0.204799,-0.14145 -0.362721,-0.14145 -0.189761,0 -0.337765,0.0565 -0.444619,0.17027 -0.10767,0.11459 -0.159833,0.27221 -0.15583,0.47421 l 0.02427,1.22467 h -0.375565 l -0.01676,-2.1043 h 0.350627 l 0.0061,0.3084 c 0.08154,-0.1201 0.177776,-0.20925 0.288858,-0.268 0.111907,-0.0585 0.241493,-0.0877 0.389088,-0.0877 0.24347,0 0.431679,0.0701 0.565578,0.21132 0.135104,0.14137 0.21265,0.35233 0.231943,0.63583 z"
             id="path18682" />
          <path
             d="m 65.349255,190.117 h 0.348732 l 0.217476,2.1043 h -0.373535 z m -0.06826,-0.7455 h 0.339944 l 0.04068,0.39366 h -0.344585 z"
             id="path18684" />
          <path
             d="m 68.342271,190.91687 0.244776,1.30443 h -0.373535 l -0.227448,-1.29332 c -0.0343,-0.19501 -0.09947,-0.33933 -0.195395,-0.43438 -0.09532,-0.0944 -0.221716,-0.14145 -0.379638,-0.14145 -0.189761,0 -0.331003,0.0565 -0.424255,0.17027 -0.09397,0.11459 -0.127277,0.27221 -0.09912,0.47421 l 0.170736,1.22467 h -0.375565 l -0.268431,-2.1043 h 0.350627 l 0.043,0.3084 c 0.06718,-0.1201 0.15275,-0.20925 0.256807,-0.268 0.104909,-0.0585 0.231006,-0.0877 0.378601,-0.0877 0.24347,0 0.440063,0.0701 0.590851,0.21132 0.152012,0.14137 0.25479,0.35233 0.307989,0.63583 z"
             id="path18686" />
          <path
             d="m 70.540775,191.10864 c -0.06402,-0.24779 -0.166349,-0.43708 -0.30682,-0.56999 -0.137964,-0.13175 -0.301339,-0.19719 -0.491031,-0.19719 -0.18842,0 -0.320608,0.0654 -0.397068,0.19719 -0.07585,0.13291 -0.08732,0.3222 -0.03325,0.56999 0.05468,0.25061 0.152087,0.44803 0.292491,0.59013 0.143036,0.14341 0.314229,0.21562 0.51259,0.21562 0.199702,0 0.336485,-0.0722 0.409843,-0.21562 0.07402,-0.1421 0.078,-0.33952 0.01325,-0.59013 z m 0.586103,0.83537 c 0.103094,0.38161 0.09432,0.6712 -0.02931,0.8635 -0.124758,0.19603 -0.36993,0.29494 -0.734377,0.29494 -0.134929,0 -0.264641,-0.0106 -0.389015,-0.0319 -0.123896,-0.0198 -0.246635,-0.0508 -0.368093,-0.0931 l -0.08014,-0.37328 c 0.124164,0.0606 0.243897,0.10547 0.359002,0.13455 0.115312,0.0291 0.229517,0.0437 0.34246,0.0437 0.2493,0 0.419545,-0.0659 0.510177,-0.19682 0.09025,-0.12851 0.101772,-0.32138 0.03592,-0.57626 l -0.04642,-0.17966 c -0.04289,0.1301 -0.11611,0.22805 -0.219703,0.29325 -0.104026,0.0655 -0.24011,0.0983 -0.407929,0.0983 -0.278797,0 -0.526499,-0.10497 -0.740966,-0.31283 -0.211664,-0.20515 -0.350689,-0.47285 -0.418057,-0.79983 -0.06621,-0.32134 -0.03758,-0.5742 0.08369,-0.76183 0.11977,-0.1853 0.309033,-0.27708 0.568902,-0.27708 0.156426,0 0.297785,0.0286 0.424445,0.0859 0.127153,0.0576 0.242047,0.14492 0.344918,0.2626 l -0.07783,-0.30123 h 0.348731 z"
             id="path18688" />
        </g>
      </g>
    </g>
    <g
       id="g37383"
       transform="translate(0,10.054167)">
      <g
         id="g13046"
         transform="matrix(1.6511572,0,0,1.6511572,-42.680822,-151.72455)">
        <g
           id="g13087"
           transform="translate(0,-7.125427)">
          <g
             id="g11872"
             transform="translate(0.21103762,23.109782)">
            <path
               id="rect11682"
               style="fill:url(#linearGradient11757);fill-opacity:1;stroke-width:0.174558"
               d="m 59.678712,151.32458 c -1.337942,-9e-5 -2.422629,1.08446 -2.422708,2.4224 v 9.69021 c 1.461695,0.91207 3.076201,0.91522 4.845104,0 v -9.69021 c -7.9e-5,-1.33782 -1.084576,-2.42232 -2.422396,-2.4224 z"
               sodipodi:nodetypes="sccccs" />
            <circle
               style="fill:url(#radialGradient11846);fill-opacity:1;stroke-width:0.213789"
               id="path11738"
               cx="59.678585"
               cy="148.90198"
               r="2.4225435" />
          </g>
          <g
             id="g11888"
             transform="translate(6.5444795,16.71083)">
            <path
               id="path11884"
               style="fill:url(#linearGradient11890);fill-opacity:1;stroke-width:0.174558"
               d="m 59.678712,151.32458 c -1.337942,-9e-5 -2.422629,1.08446 -2.422708,2.4224 v 9.69021 c 1.461695,0.91207 3.076201,0.91522 4.845104,0 v -9.69021 c -7.9e-5,-1.33782 -1.084576,-2.42232 -2.422396,-2.4224 z"
               sodipodi:nodetypes="sccccs" />
            <circle
               style="fill:url(#radialGradient11892);fill-opacity:1;stroke-width:0.213789"
               id="circle11886"
               cx="59.678585"
               cy="148.90198"
               r="2.4225435" />
          </g>
          <g
             id="g11878"
             transform="translate(7.5119074,31.931277)">
            <path
               id="path11874"
               style="fill:url(#linearGradient11880);fill-opacity:1;stroke-width:0.174558"
               d="m 59.678712,151.32458 c -1.337942,-9e-5 -2.422629,1.08446 -2.422708,2.4224 v 9.69021 c 1.461695,0.91207 3.076201,0.91522 4.845104,0 v -9.69021 c -7.9e-5,-1.33782 -1.084576,-2.42232 -2.422396,-2.4224 z"
               sodipodi:nodetypes="sccccs" />
            <circle
               style="fill:url(#radialGradient11882);fill-opacity:1;stroke-width:0.213789"
               id="circle11876"
               cx="59.678585"
               cy="148.90198"
               r="2.4225435" />
          </g>
          <g
             id="g11898"
             transform="translate(15.271699,23.109782)">
            <path
               id="path11894"
               style="fill:url(#linearGradient11900);fill-opacity:1;stroke-width:0.174558"
               d="m 59.678712,151.32458 c -1.337942,-9e-5 -2.422629,1.08446 -2.422708,2.4224 v 9.69021 c 1.461695,0.91207 3.076201,0.91522 4.845104,0 v -9.69021 c -7.9e-5,-1.33782 -1.084576,-2.42232 -2.422396,-2.4224 z"
               sodipodi:nodetypes="sccccs" />
            <circle
               style="fill:url(#radialGradient11902);fill-opacity:1;stroke-width:0.213789"
               id="circle11896"
               cx="59.678585"
               cy="148.90198"
               r="2.4225435" />
          </g>
          <g
             id="g11908"
             transform="translate(21.255932,17.175001)">
            <path
               id="path11904"
               style="fill:url(#linearGradient11910);fill-opacity:1;stroke-width:0.174558"
               d="m 59.678712,151.32458 c -1.337942,-9e-5 -2.422629,1.08446 -2.422708,2.4224 v 9.69021 c 1.461695,0.91207 3.076201,0.91522 4.845104,0 v -9.69021 c -7.9e-5,-1.33782 -1.084576,-2.42232 -2.422396,-2.4224 z"
               sodipodi:nodetypes="sccccs" />
            <circle
               style="fill:url(#radialGradient11912);fill-opacity:1;stroke-width:0.213789"
               id="circle11906"
               cx="59.678585"
               cy="148.90198"
               r="2.4225435" />
          </g>
          <g
             id="g11978"
             transform="translate(21.912742,32.325814)">
            <path
               id="path11974"
               style="fill:url(#linearGradient11980);fill-opacity:1;stroke-width:0.174558"
               d="m 59.678712,151.32458 c -1.337942,-9e-5 -2.422629,1.08446 -2.422708,2.4224 v 9.69021 c 1.461695,0.91207 3.076201,0.91522 4.845104,0 v -9.69021 c -7.9e-5,-1.33782 -1.084576,-2.42232 -2.422396,-2.4224 z"
               sodipodi:nodetypes="sccccs" />
            <circle
               style="fill:url(#radialGradient11982);fill-opacity:1;stroke-width:0.213789"
               id="circle11976"
               cx="59.678585"
               cy="148.90198"
               r="2.4225435" />
          </g>
          <g
             id="g11988"
             transform="translate(29.813895,23.109782)">
            <path
               id="path11984"
               style="fill:url(#linearGradient12040);fill-opacity:1;stroke-width:0.174558"
               d="m 59.678712,151.32458 c -1.337942,-9e-5 -2.422629,1.08446 -2.422708,2.4224 v 9.69021 c 1.461695,0.91207 3.076201,0.91522 4.845104,0 v -9.69021 c -7.9e-5,-1.33782 -1.084576,-2.42232 -2.422396,-2.4224 z"
               sodipodi:nodetypes="sccccs" />
            <circle
               style="fill:url(#radialGradient12042);fill-opacity:1;stroke-width:0.213789"
               id="circle11986"
               cx="59.678585"
               cy="148.90198"
               r="2.4225435" />
          </g>
          <g
             id="g11994"
             transform="translate(36.66584,16.71083)">
            <path
               id="path11990"
               style="fill:url(#linearGradient12036);fill-opacity:1;stroke-width:0.174558"
               d="m 59.678712,151.32458 c -1.337942,-9e-5 -2.422629,1.08446 -2.422708,2.4224 v 9.69021 c 1.461695,0.91207 3.076201,0.91522 4.845104,0 v -9.69021 c -7.9e-5,-1.33782 -1.084576,-2.42232 -2.422396,-2.4224 z"
               sodipodi:nodetypes="sccccs" />
            <circle
               style="fill:url(#radialGradient12038);fill-opacity:1;stroke-width:0.213789"
               id="circle11992"
               cx="59.678585"
               cy="148.90198"
               r="2.4225435" />
          </g>
          <g
             id="g12000"
             transform="translate(36.315657,32.558933)">
            <path
               id="path11996"
               style="fill:url(#linearGradient12032);fill-opacity:1;stroke-width:0.174558"
               d="m 59.678712,151.32458 c -1.337942,-9e-5 -2.422629,1.08446 -2.422708,2.4224 v 9.69021 c 1.461695,0.91207 3.076201,0.91522 4.845104,0 v -9.69021 c -7.9e-5,-1.33782 -1.084576,-2.42232 -2.422396,-2.4224 z"
               sodipodi:nodetypes="sccccs" />
            <circle
               style="fill:url(#radialGradient12034);fill-opacity:1;stroke-width:0.213789"
               id="circle11998"
               cx="59.678585"
               cy="148.90198"
               r="2.4225435" />
          </g>
          <g
             id="g12006"
             transform="translate(44.356129,23.109782)">
            <path
               id="path12002"
               style="fill:url(#linearGradient12028);fill-opacity:1;stroke-width:0.174558"
               d="m 59.678712,151.32458 c -1.337942,-9e-5 -2.422629,1.08446 -2.422708,2.4224 v 9.69021 c 1.461695,0.91207 3.076201,0.91522 4.845104,0 v -9.69021 c -7.9e-5,-1.33782 -1.084576,-2.42232 -2.422396,-2.4224 z"
               sodipodi:nodetypes="sccccs" />
            <circle
               style="fill:url(#radialGradient12030);fill-opacity:1;stroke-width:0.213789"
               id="circle12004"
               cx="59.678585"
               cy="148.90198"
               r="2.4225435" />
          </g>
          <g
             id="g12012"
             transform="translate(51.377293,17.175001)">
            <path
               id="path12008"
               style="fill:url(#linearGradient12024);fill-opacity:1;stroke-width:0.174558"
               d="m 59.678712,151.32458 c -1.337942,-9e-5 -2.422629,1.08446 -2.422708,2.4224 v 9.69021 c 1.461695,0.91207 3.076201,0.91522 4.845104,0 v -9.69021 c -7.9e-5,-1.33782 -1.084576,-2.42232 -2.422396,-2.4224 z"
               sodipodi:nodetypes="sccccs" />
            <circle
               style="fill:url(#radialGradient12026);fill-opacity:1;stroke-width:0.213789"
               id="circle12010"
               cx="59.678585"
               cy="148.90198"
               r="2.4225435" />
          </g>
          <g
             id="g12018"
             transform="translate(52.075748,32.325814)">
            <path
               id="path12014"
               style="fill:url(#linearGradient12020);fill-opacity:1;stroke-width:0.174558"
               d="m 59.678712,151.32458 c -1.337942,-9e-5 -2.422629,1.08446 -2.422708,2.4224 v 9.69021 c 1.461695,0.91207 3.076201,0.91522 4.845104,0 v -9.69021 c -7.9e-5,-1.33782 -1.084576,-2.42232 -2.422396,-2.4224 z"
               sodipodi:nodetypes="sccccs" />
            <circle
               style="fill:url(#radialGradient12022);fill-opacity:1;stroke-width:0.213789"
               id="circle12016"
               cx="59.678585"
               cy="148.90198"
               r="2.4225435" />
          </g>
          <g
             id="g12048"
             transform="translate(59.313431,23.109782)">
            <path
               id="path12044"
               style="fill:url(#linearGradient12050);fill-opacity:1;stroke-width:0.174558"
               d="m 59.678712,151.32458 c -1.337942,-9e-5 -2.422629,1.08446 -2.422708,2.4224 v 9.69021 c 1.461695,0.91207 3.076201,0.91522 4.845104,0 v -9.69021 c -7.9e-5,-1.33782 -1.084576,-2.42232 -2.422396,-2.4224 z"
               sodipodi:nodetypes="sccccs" />
            <circle
               style="fill:url(#radialGradient12052);fill-opacity:1;stroke-width:0.213789"
               id="circle12046"
               cx="59.678585"
               cy="148.90198"
               r="2.4225435" />
          </g>
        </g>
      </g>
      <g
         aria-label="USERS"
         id="text23800"
         style="font-size:22.5778px;line-height:1.25;fill:#e0ebf8;stroke-width:0.264583"
         inkscape:path-effect="#path-effect25684">
        <text
           xml:space="preserve"
           style="font-style:normal;font-weight:normal;font-size:7.05556px;line-height:1.25;font-family:sans-serif;fill:#7aaeed;fill-opacity:1;stroke:none;stroke-width:0.0700042"
           x="60.996693"
           y="100.49532"
           id="text26390"><tspan
             sodipodi:role="line"
             id="tspan26388"
             style="font-size:7.05556px;fill:#7aaeed;fill-opacity:0.743112;stroke-width:0.0700042"
             x="60.996693"
             y="100.49532">Individual &amp; Group Users</tspan></text>
      </g>
    </g>
    <g
       id="g22763"
       transform="translate(-161.18057,-16.55913)"
       style="fill:#fdf0d9;fill-opacity:1">
      <g
         aria-label="Collective storage &amp;"
         id="g22717"
         style="font-size:7.05556px;line-height:1.25;text-align:center;text-anchor:middle;fill:#fdf0d9;fill-opacity:1;stroke-width:0.264583"
         inkscape:transform-center-x="-0.10573915"
         inkscape:transform-center-y="-8.7353169"
         transform="translate(-77.405139,-57.271187)">
        <path
           d="m 310.65095,314.2388 -0.0716,0.7303 q -0.31777,-0.36003 -0.69969,-0.56019 -0.37848,-0.19982 -0.82421,-0.24355 -0.87773,-0.0861 -1.39683,0.40645 -0.51876,0.48913 -0.61832,1.50401 -0.0992,1.01145 0.31427,1.59549 0.41383,0.58061 1.29156,0.66671 0.44573,0.0437 0.85583,-0.0787 0.41353,-0.12213 0.7952,-0.41354 l -0.071,0.72344 q -0.38765,0.21121 -0.80777,0.29462 -0.41668,0.0837 -0.86926,0.0394 -1.16231,-0.11402 -1.76128,-0.88934 -0.59862,-0.77874 -0.47788,-2.00962 0.12108,-1.23431 0.85929,-1.87846 0.73854,-0.64757 1.90085,-0.53355 0.45944,0.0451 0.85191,0.20819 0.39624,0.16003 0.72894,0.43844 z"
           id="path22681"
           style="fill:#fdf0d9;fill-opacity:1" />
        <path
           d="m 313.00126,315.77205 q -0.50816,-0.0418 -0.83617,0.33227 -0.32773,0.37059 -0.38444,1.06073 -0.0567,0.69014 0.20241,1.11241 0.26284,0.41912 0.77444,0.46115 0.50473,0.0415 0.83274,-0.33255 0.32801,-0.37402 0.38443,-1.06073 0.0562,-0.68327 -0.2064,-1.10582 -0.26228,-0.42599 -0.76701,-0.46746 z m 0.044,-0.53563 q 0.82404,0.0677 1.25042,0.64199 0.42638,0.57429 0.34851,1.52194 -0.0776,0.94422 -0.59227,1.44463 -0.51441,0.49698 -1.33846,0.42926 -0.82748,-0.068 -1.25386,-0.64227 -0.42266,-0.57744 -0.34507,-1.52166 0.0779,-0.94765 0.58884,-1.44491 0.51441,-0.49698 1.34189,-0.42898 z"
           id="path22683"
           style="fill:#fdf0d9;fill-opacity:1" />
        <path
           d="m 315.92141,314.04627 0.63227,0.0455 -0.38485,5.34674 -0.63226,-0.0455 z"
           id="path22685"
           style="fill:#fdf0d9;fill-opacity:1" />
        <path
           d="m 317.84408,314.18066 0.63253,0.0416 -0.35219,5.34899 -0.63253,-0.0416 z"
           id="path22687"
           style="fill:#fdf0d9;fill-opacity:1" />
        <path
           d="m 322.859,317.75859 -0.0174,0.30957 -2.90995,-0.16381 q 0.004,0.65585 0.33597,1.01957 0.33511,0.36047 0.96457,0.39591 0.3646,0.0205 0.71016,-0.0497 0.349,-0.0701 0.69615,-0.22995 l -0.0337,0.5985 q -0.34866,0.12529 -0.71064,0.18083 -0.36198,0.0555 -0.73003,0.0348 -0.92182,-0.0519 -1.43164,-0.61888 -0.50638,-0.56679 -0.45487,-1.48174 0.0532,-0.9459 0.59349,-1.47103 0.54388,-0.52837 1.41067,-0.47958 0.77736,0.0438 1.19969,0.57132 0.42595,0.52431 0.37754,1.38422 z m -0.62244,-0.22137 q 0.0224,-0.51977 -0.2457,-0.84541 -0.26462,-0.32545 -0.73242,-0.35178 -0.5297,-0.0298 -0.86644,0.25142 -0.33329,0.28143 -0.41204,0.82219 z"
           id="path22689"
           style="fill:#fdf0d9;fill-opacity:1" />
        <path
           d="m 326.71994,316.30806 -0.0262,0.59197 q -0.2619,-0.15988 -0.5306,-0.24419 -0.2651,-0.0876 -0.54044,-0.0998 -0.61607,-0.0273 -0.97417,0.35 -0.35795,0.37383 -0.38918,1.07938 -0.0312,0.70556 0.29212,1.113 0.32351,0.404 0.93958,0.43127 0.27534,0.0122 0.547,-0.0482 0.27524,-0.0637 0.55025,-0.19979 l -0.0259,0.58509 q -0.2705,0.11217 -0.55891,0.16148 -0.28496,0.0494 -0.60504,0.0353 -0.87076,-0.0385 -1.35935,-0.60848 -0.48859,-0.56994 -0.44745,-1.49921 0.0418,-0.94303 0.58193,-1.46053 0.54362,-0.51734 1.44536,-0.47742 0.29254,0.0129 0.56858,0.0872 0.27619,0.0709 0.53243,0.2029 z"
           id="path22691"
           style="fill:#fdf0d9;fill-opacity:1" />
        <path
           d="m 328.45589,315.12537 -0.0382,1.09488 1.30489,0.0455 -0.0172,0.49235 -1.3049,-0.0455 -0.073,2.09334 q -0.0164,0.4717 0.10627,0.61041 0.12615,0.13884 0.5221,0.15265 l 0.65073,0.0227 -0.0185,0.53023 -0.65073,-0.0227 q -0.73336,-0.0256 -1.00276,-0.30729 -0.26928,-0.28516 -0.24407,-1.00819 l 0.073,-2.09335 -0.4648,-0.0162 0.0172,-0.49235 0.46481,0.0162 0.0382,-1.09487 z"
           id="path22693"
           style="fill:#fdf0d9;fill-opacity:1" />
        <path
           d="m 330.53134,316.28829 0.63364,0.0179 -0.10919,3.85696 -0.63365,-0.0179 z m 0.0425,-1.50146 0.63364,0.0179 -0.0227,0.80238 -0.63365,-0.0179 z"
           id="path22695"
           style="fill:#fdf0d9;fill-opacity:1" />
        <path
           d="m 332.00392,316.33295 0.67166,0.0134 1.1409,3.26181 1.27018,-3.21368 0.67166,0.0134 -1.52366,3.82886 -0.8611,-0.0172 z"
           id="path22697"
           style="fill:#fdf0d9;fill-opacity:1" />
        <path
           d="m 339.87445,318.21653 -0.003,0.31005 -2.91445,-0.025 q 0.0357,0.6549 0.38416,1.00241 0.3519,0.3441 0.98233,0.3495 0.36517,0.003 0.70699,-0.0835 0.34527,-0.0866 0.68441,-0.26285 l -0.005,0.59942 q -0.3423,0.14176 -0.70122,0.21448 -0.35893,0.0727 -0.72754,0.0695 -0.92325,-0.008 -1.4595,-0.54997 -0.53281,-0.54203 -0.52495,-1.45839 0.008,-0.94736 0.52274,-1.49763 0.51809,-0.55368 1.38622,-0.54624 0.77856,0.007 1.22554,0.51352 0.45045,0.50342 0.44306,1.36466 z m -0.63227,-0.19146 q -0.002,-0.52025 -0.2857,-0.83275 -0.27983,-0.31247 -0.74835,-0.31649 -0.53052,-0.005 -0.85348,0.29241 -0.31951,0.29699 -0.3724,0.84089 z"
           id="path22699"
           style="fill:#fdf0d9;fill-opacity:1" />
        <path
           d="m 345.57306,316.53601 0.005,0.59943 q -0.2698,-0.13567 -0.55973,-0.20228 -0.28992,-0.0666 -0.59997,-0.0642 -0.47196,0.004 -0.70852,0.1503 -0.23312,0.14655 -0.23083,0.43592 0.002,0.22048 0.17155,0.34661 0.16979,0.12269 0.68055,0.23234 l 0.21741,0.0465 q 0.67636,0.13935 0.96095,0.40238 0.288,0.25956 0.29174,0.73152 0.004,0.53742 -0.42046,0.85429 -0.42125,0.31685 -1.16537,0.32273 -0.31005,0.002 -0.64815,-0.0569 -0.33463,-0.0559 -0.70764,-0.17356 l -0.005,-0.65455 q 0.35283,0.17981 0.69462,0.27013 0.34176,0.0869 0.67593,0.0842 0.44784,-0.004 0.6878,-0.15702 0.23992,-0.15694 0.23771,-0.43598 -0.002,-0.25837 -0.17882,-0.39478 -0.17334,-0.13644 -0.76344,-0.25925 l -0.22089,-0.0499 q -0.59007,-0.11937 -0.85391,-0.37222 -0.26386,-0.25631 -0.2674,-0.70416 -0.004,-0.54431 0.37919,-0.84363 0.3835,-0.29931 1.09317,-0.30492 0.35139,-0.003 0.66184,0.0464 0.31046,0.0492 0.5731,0.1505 z"
           id="path22701"
           style="fill:#fdf0d9;fill-opacity:1" />
        <path
           d="m 347.36273,315.2998 0.0181,1.0954 1.30552,-0.0215 0.008,0.49258 -1.30552,0.0215 0.0345,2.09433 q 0.008,0.47192 0.13744,0.60416 0.13311,0.13218 0.52925,0.12565 l 0.65103,-0.0107 0.009,0.53047 -0.65104,0.0107 q -0.7337,0.0121 -1.01721,-0.25543 -0.28355,-0.27097 -0.29548,-0.99434 l -0.0345,-2.09434 -0.46503,0.008 -0.008,-0.49258 0.46503,-0.008 -0.0181,-1.09539 z"
           id="path22703"
           style="fill:#fdf0d9;fill-opacity:1" />
        <path
           d="m 350.98976,316.76342 q -0.5097,0.0133 -0.79546,0.42051 -0.28585,0.40378 -0.26779,1.09601 0.0181,0.69222 0.3212,1.08409 0.30651,0.38832 0.81966,0.37494 0.50625,-0.0132 0.79201,-0.42043 0.28576,-0.40722 0.26779,-1.096 -0.0179,-0.68534 -0.32447,-1.07711 -0.30668,-0.39522 -0.81294,-0.38201 z m -0.014,-0.53726 q 0.82654,-0.0215 1.31237,0.50339 0.48583,0.52495 0.51062,1.47547 0.0247,0.94708 -0.43301,1.50008 -0.45781,0.54956 -1.28435,0.57112 -0.82999,0.0216 -1.31582,-0.5033 -0.48248,-0.52848 -0.50718,-1.47556 -0.0248,-0.95052 0.42957,-1.49999 0.45781,-0.54956 1.2878,-0.57121 z"
           id="path22705"
           style="fill:#fdf0d9;fill-opacity:1" />
        <path
           d="m 356.01653,316.7483 q -0.10896,-0.0581 -0.23734,-0.0811 -0.12506,-0.0265 -0.27655,-0.0211 -0.53708,0.0194 -0.81362,0.38097 -0.27321,0.35804 -0.24962,1.01218 l 0.0733,2.03129 -0.63693,0.023 -0.13906,-3.85601 0.63693,-0.023 0.0216,0.59906 q 0.18702,-0.35837 0.50112,-0.53862 0.31398,-0.18369 0.77188,-0.2002 0.0654,-0.002 0.14497,0.005 0.0794,0.004 0.17645,0.0178 z"
           id="path22707"
           style="fill:#fdf0d9;fill-opacity:1" />
        <path
           d="m 358.46084,317.9664 q -0.76744,0.0356 -1.05526,0.22479 -0.28783,0.18923 -0.26821,0.61252 0.0156,0.33726 0.24513,0.52665 0.23278,0.1858 0.61477,0.16809 0.52654,-0.0244 0.82592,-0.41074 0.30267,-0.38995 0.27396,-1.0094 l -0.007,-0.1411 z m 1.25087,-0.32008 0.10191,2.19905 -0.63321,0.0294 -0.0271,-0.58504 q -0.20054,0.36107 -0.51622,0.54469 -0.31583,0.18018 -0.78386,0.20187 -0.59192,0.0274 -0.95826,-0.28667 -0.36305,-0.31771 -0.38889,-0.87522 -0.0301,-0.65042 0.38816,-1.00089 0.42175,-0.35063 1.28554,-0.39066 l 0.88789,-0.0412 -0.003,-0.0619 q -0.0203,-0.43706 -0.32033,-0.66112 -0.2968,-0.22766 -0.81646,-0.20357 -0.33037,0.0153 -0.63987,0.10897 -0.3095,0.0937 -0.59124,0.26537 l -0.0271,-0.58504 q 0.34136,-0.15032 0.66526,-0.23086 0.32374,-0.084 0.63347,-0.0983 0.83626,-0.0388 1.26933,0.37572 0.43306,0.41448 0.47389,1.29548 z"
           id="path22709"
           style="fill:#fdf0d9;fill-opacity:1" />
        <path
           d="m 363.53448,317.65625 q -0.0408,-0.68781 -0.34869,-1.04918 -0.30444,-0.36156 -0.81686,-0.33116 -0.50898,0.0302 -0.77198,0.42542 -0.25956,0.39502 -0.21876,1.08284 0.0406,0.68437 0.34505,1.04593 0.30788,0.36136 0.81686,0.33117 0.51242,-0.0304 0.77198,-0.42542 0.263,-0.39523 0.2224,-1.0796 z m 0.72133,1.45501 q 0.0584,0.98356 -0.35006,1.4875 -0.40819,0.50738 -1.30922,0.56083 -0.33359,0.0198 -0.63241,-0.0143 -0.29862,-0.0306 -0.5833,-0.11725 l -0.0365,-0.61559 q 0.28754,0.1348 0.56351,0.1909 0.27597,0.0561 0.55797,0.0394 0.62247,-0.0369 0.9126,-0.382 0.29034,-0.34163 0.25137,-0.99849 l -0.0186,-0.31295 q -0.17583,0.35209 -0.47191,0.53877 -0.29608,0.18667 -0.72252,0.21197 -0.70844,0.042 -1.1738,-0.4722 -0.46535,-0.51423 -0.51819,-1.40494 -0.053,-0.89415 0.34825,-1.45979 0.40129,-0.56564 1.10973,-0.60767 0.42644,-0.0253 0.74252,0.12506 0.31607,0.15036 0.53229,0.47919 l -0.0347,-0.58463 0.63279,-0.0375 z"
           id="path22711"
           style="fill:#fdf0d9;fill-opacity:1" />
        <path
           d="m 368.72687,317.18043 0.0226,0.30924 -2.90682,0.21213 q 0.0889,0.64983 0.46442,0.96785 0.37872,0.31433 1.00751,0.26844 0.36421,-0.0266 0.69785,-0.14074 0.33707,-0.11441 0.66076,-0.31765 l 0.0436,0.59785 q -0.32963,0.16914 -0.68145,0.27081 -0.35183,0.10167 -0.71947,0.1285 -0.92084,0.0672 -1.4994,-0.42944 -0.57513,-0.49689 -0.64183,-1.41086 -0.069,-0.94489 0.39919,-1.53519 0.47134,-0.59399 1.3372,-0.65718 0.77653,-0.0567 1.26325,0.41214 0.4899,0.46511 0.55259,1.3241 z m -0.64575,-0.1394 q -0.0447,-0.51833 -0.35249,-0.80676 -0.30432,-0.28867 -0.77161,-0.25457 -0.52914,0.0386 -0.82687,0.36087 -0.29429,0.32199 -0.30277,0.86839 z"
           id="path22713"
           style="fill:#fdf0d9;fill-opacity:1" />
        <path
           d="m 372.92925,316.13488 q -0.28507,0.30804 -0.40555,0.60011 -0.11738,0.2883 -0.0881,0.59005 0.0486,0.50063 0.44437,0.79795 0.39577,0.29732 0.9444,0.24405 0.32575,-0.0316 0.60004,-0.16555 0.27395,-0.13736 0.50296,-0.38112 z m 0.4462,-0.43098 1.91503,1.61395 q 0.17269,-0.32483 0.25222,-0.68214 0.0792,-0.36074 0.0618,-0.75364 l 0.63779,-0.0619 q 0.003,0.45662 -0.13257,0.91627 -0.13536,0.45965 -0.41231,0.92266 l 1.05157,0.88437 -0.8641,0.0839 -0.53929,-0.45646 q -0.32698,0.33981 -0.70323,0.52863 -0.37659,0.1854 -0.82579,0.22901 -0.82638,0.0802 -1.39662,-0.3386 -0.57058,-0.42227 -0.64215,-1.15949 -0.0426,-0.43891 0.14984,-0.84526 0.19212,-0.40978 0.61865,-0.79386 -0.18557,-0.20005 -0.29193,-0.40432 -0.1067,-0.2077 -0.12668,-0.41344 -0.0539,-0.5555 0.29406,-0.92849 0.34766,-0.37642 0.97859,-0.43768 0.28461,-0.0276 0.57178,0.007 0.29059,0.0341 0.59404,0.12923 l 0.0606,0.62408 q -0.31397,-0.1322 -0.59284,-0.1882 -0.27922,-0.0594 -0.51239,-0.0368 -0.36004,0.035 -0.56771,0.24895 -0.20457,0.21024 -0.17528,0.51199 0.017,0.17488 0.13373,0.34353 0.11985,0.16489 0.46318,0.45692 z"
           id="path22715"
           style="fill:#fdf0d9;fill-opacity:1" />
      </g>
      <g
         aria-label="network infrastructure"
         id="g22761"
         style="font-size:7.05556px;line-height:1.25;text-align:center;text-anchor:middle;fill:#fdf0d9;fill-opacity:1;stroke-width:0.264583"
         inkscape:transform-center-x="-0.42226767"
         inkscape:transform-center-y="-8.7353169"
         transform="translate(1.1307236,-76.739862)">
        <path
           d="m 227.60141,343.81077 -0.26187,2.31411 -0.62988,-0.0713 0.25955,-2.29357 q 0.0616,-0.5443 -0.12004,-0.83875 -0.18164,-0.29446 -0.60612,-0.3425 -0.51006,-0.0577 -0.84126,0.23418 -0.33121,0.29189 -0.39474,0.8533 l -0.24522,2.16692 -0.6333,-0.0717 0.43388,-3.83404 0.6333,0.0717 -0.0674,0.59564 q 0.26506,-0.32018 0.58909,-0.45686 0.32747,-0.1363 0.72799,-0.091 0.66068,0.0748 0.9531,0.52391 0.2928,0.44571 0.20292,1.23991 z"
           id="path22719"
           style="fill:#fdf0d9;fill-opacity:1" />
        <path
           d="m 232.08491,344.49522 -0.0299,0.30862 -2.90099,-0.28081 q -0.0219,0.65551 0.29465,1.03227 0.32033,0.37367 0.94785,0.43441 0.36349,0.0352 0.71159,-0.0211 0.35154,-0.056 0.70485,-0.20175 l -0.0578,0.59666 q -0.35341,0.11116 -0.71734,0.15208 -0.36393,0.0409 -0.73084,0.005 -0.91899,-0.089 -1.40557,-0.676 -0.48315,-0.58672 -0.39486,-1.49885 0.0913,-0.94299 0.65222,-1.44595 0.5647,-0.50605 1.42883,-0.4224 0.77497,0.075 1.17572,0.61914 0.4045,0.54103 0.32152,1.39829 z m -0.61302,-0.24624 q 0.0433,-0.51845 -0.21148,-0.85462 -0.25131,-0.33583 -0.71766,-0.38098 -0.52808,-0.0511 -0.87586,0.21635 -0.34435,0.26779 -0.4448,0.80493 z"
           id="path22721"
           style="fill:#fdf0d9;fill-opacity:1" />
        <path
           d="m 233.96254,341.77668 -0.0923,1.09164 1.30106,0.10996 -0.0415,0.49089 -1.30105,-0.10995 -0.17639,2.08718 q -0.0397,0.47031 0.076,0.61492 0.11914,0.14491 0.51391,0.17827 l 0.64882,0.0548 -0.0447,0.52866 -0.64881,-0.0548 q -0.7312,-0.0618 -0.98634,-0.35649 -0.25486,-0.29813 -0.19394,-1.01903 l 0.17639,-2.08718 -0.46344,-0.0392 0.0415,-0.4909 0.46343,0.0392 0.0923,-1.09165 z"
           id="path22723"
           style="fill:#fdf0d9;fill-opacity:1" />
        <path
           d="m 235.58107,343.01906 0.63232,0.0447 0.57808,3.0594 0.99928,-2.94789 0.74573,0.0527 0.57807,3.05939 0.99929,-2.94789 0.63232,0.0447 -1.27898,3.77773 -0.74573,-0.0527 -0.60519,-3.21327 -1.05465,3.09593 -0.74573,-0.0527 z"
           id="path22725"
           style="fill:#fdf0d9;fill-opacity:1" />
        <path
           d="m 243.116,343.95813 q -0.5091,-0.0281 -0.82696,0.35456 -0.31768,0.37925 -0.35587,1.07066 -0.0382,0.69141 0.23215,1.10658 0.27398,0.41192 0.78652,0.44024 0.50566,0.0279 0.82353,-0.35476 0.31786,-0.38268 0.35586,-1.07065 0.0378,-0.68453 -0.23597,-1.0999 -0.2736,-0.4188 -0.77926,-0.44673 z m 0.0296,-0.53662 q 0.82557,0.0456 1.26719,0.60825 0.44162,0.56265 0.38918,1.51205 -0.0523,0.94596 -0.55335,1.45999 -0.5009,0.51058 -1.32646,0.46498 -0.82901,-0.0458 -1.27063,-0.60844 -0.43799,-0.56589 -0.38573,-1.51185 0.0524,-0.9494 0.5499,-1.46018 0.5009,-0.51059 1.3299,-0.4648 z"
           id="path22727"
           style="fill:#fdf0d9;fill-opacity:1" />
        <path
           d="m 248.12432,344.34888 q -0.10393,-0.0667 -0.23004,-0.0999 -0.12251,-0.0365 -0.27395,-0.0433 -0.5369,-0.024 -0.84168,0.31414 -0.30119,0.33485 -0.33041,0.98876 l -0.0907,2.03058 -0.63671,-0.0284 0.17225,-3.85466 0.63671,0.0285 -0.0268,0.59885 q 0.2153,-0.34213 0.54291,-0.49647 0.32776,-0.15778 0.7855,-0.13733 0.0654,0.003 0.14409,0.0168 0.0788,0.0104 0.17445,0.0319 z"
           id="path22729"
           style="fill:#fdf0d9;fill-opacity:1" />
        <path
           d="m 248.80481,342.27931 0.63696,0.0222 -0.11013,3.16413 1.94809,-1.59719 0.80911,0.0282 -2.10794,1.73296 2.05981,2.12621 -0.82633,-0.0288 -1.89352,-1.95151 -0.0656,1.88333 -0.63696,-0.0222 z"
           id="path22731"
           style="fill:#fdf0d9;fill-opacity:1" />
        <path
           d="m 255.04743,343.96617 0.63377,0.0129 -0.0785,3.85771 -0.63377,-0.0129 z m 0.0306,-1.50175 0.63376,0.0129 -0.0163,0.80254 -0.63377,-0.0129 z"
           id="path22733"
           style="fill:#fdf0d9;fill-opacity:1" />
        <path
           d="m 260.16361,345.57224 -0.0273,2.32873 -0.63385,-0.007 0.027,-2.30806 q 0.006,-0.54773 -0.20398,-0.82238 -0.21039,-0.27464 -0.63755,-0.27965 -0.51328,-0.006 -0.81338,0.31778 -0.30009,0.32379 -0.30671,0.88874 l -0.0256,2.1806 -0.6373,-0.007 0.0452,-3.85824 0.6373,0.007 -0.007,0.59941 q 0.23144,-0.34527 0.54005,-0.51392 0.31206,-0.1686 0.71511,-0.16388 0.66486,0.008 1.00105,0.42517 0.33624,0.41394 0.32687,1.21314 z"
           id="path22735"
           style="fill:#fdf0d9;fill-opacity:1" />
        <path
           d="m 263.36696,342.54941 -0.001,0.5271 -0.60634,-0.002 q -0.34106,-8.5e-4 -0.47577,0.13661 -0.13126,0.13748 -0.13216,0.49577 l -8.6e-4,0.34106 1.04386,0.003 -10e-4,0.49265 -1.04387,-0.003 -0.008,3.36585 -0.63734,-0.002 0.008,-3.36585 -0.60633,-0.002 10e-4,-0.49265 0.60633,0.002 6.8e-4,-0.26872 q 0.002,-0.64423 0.30208,-0.93631 0.30046,-0.29552 0.95159,-0.29389 z"
           id="path22737"
           style="fill:#fdf0d9;fill-opacity:1" />
        <path
           d="m 266.10732,344.63121 q -0.10708,-0.0615 -0.23467,-0.0885 -0.12417,-0.0304 -0.27575,-0.0297 -0.53743,0.002 -0.82521,0.35517 -0.28435,0.34926 -0.28137,1.00382 l 0.009,2.03259 -0.63734,0.003 -0.0176,-3.85847 0.63733,-0.003 0.003,0.59944 q 0.19821,-0.35231 0.51783,-0.52258 0.3196,-0.17371 0.7778,-0.17581 0.0654,-2.9e-4 0.14474,0.01 0.0793,0.007 0.1758,0.0233 z"
           id="path22739"
           style="fill:#fdf0d9;fill-opacity:1" />
        <path
           d="m 268.51386,345.92699 q -0.76818,0.0109 -1.06194,0.19074 -0.29376,0.17988 -0.28777,0.60358 0.005,0.33759 0.22807,0.53426 0.22669,0.19319 0.60906,0.18777 0.52705,-0.007 0.8387,-0.38397 0.31505,-0.38001 0.30627,-1.00007 l -0.002,-0.14123 z m 1.26052,-0.2797 0.0311,2.2012 -0.63383,0.009 -0.008,-0.58561 q -0.21205,0.35444 -0.53346,0.52781 -0.32147,0.16994 -0.78996,0.17657 -0.59249,0.008 -0.94854,-0.31734 -0.35265,-0.32922 -0.36055,-0.88727 -0.009,-0.65106 0.42015,-0.9879 0.4328,-0.33689 1.29744,-0.34912 l 0.88874,-0.0126 -8.7e-4,-0.062 q -0.006,-0.43749 -0.29892,-0.67108 -0.28933,-0.23709 -0.80948,-0.22973 -0.3307,0.005 -0.64305,0.0883 -0.31235,0.0837 -0.59947,0.24622 l -0.008,-0.58561 q 0.34602,-0.13927 0.67235,-0.20935 0.32627,-0.0735 0.6363,-0.0779 0.83708,-0.0118 1.25659,0.41634 0.41951,0.42819 0.43199,1.31004 z"
           id="path22741"
           style="fill:#fdf0d9;fill-opacity:1" />
        <path
           d="m 273.47674,344.01619 0.0149,0.59926 q -0.27207,-0.13106 -0.56309,-0.19273 -0.29102,-0.0617 -0.60098,-0.0539 -0.47183,0.0118 -0.70586,0.16235 -0.23059,0.15049 -0.22337,0.43979 0.005,0.22042 0.17744,0.34364 0.17185,0.11977 0.6844,0.22071 l 0.21817,0.0428 q 0.67864,0.12781 0.96767,0.38596 0.29238,0.25461 0.30415,0.72644 0.0134,0.53727 -0.40584,0.86133 -0.41579,0.32398 -1.1597,0.34253 -0.30997,0.008 -0.64903,-0.0458 -0.33553,-0.0502 -0.71049,-0.16147 l -0.0163,-0.65437 q 0.35584,0.17377 0.69912,0.25826 0.34319,0.081 0.67726,0.0727 0.44773,-0.0112 0.68503,-0.16872 0.23721,-0.16099 0.23025,-0.43996 -0.006,-0.2583 -0.18552,-0.39168 -0.17564,-0.13347 -0.76775,-0.24621 l -0.2217,-0.0462 q -0.59203,-0.10929 -0.86013,-0.35762 -0.26819,-0.25177 -0.27936,-0.69949 -0.0136,-0.54416 0.36477,-0.84997 0.37834,-0.30581 1.08781,-0.32351 0.35129,-0.009 0.66254,0.0352 0.31125,0.0439 0.57558,0.14072 z"
           id="path22743"
           style="fill:#fdf0d9;fill-opacity:1" />
        <path
           d="m 275.24462,342.74929 0.037,1.09491 1.30495,-0.0441 0.0167,0.49237 -1.30495,0.0441 0.0708,2.09342 q 0.0159,0.47171 0.14789,0.60168 0.13538,0.12986 0.53134,0.11647 l 0.65075,-0.022 0.0179,0.53024 -0.65075,0.022 q -0.73338,0.0248 -1.02148,-0.23777 -0.2882,-0.26602 -0.31266,-0.98908 l -0.0708,-2.09342 -0.46483,0.0157 -0.0167,-0.49237 0.46482,-0.0157 -0.037,-1.09491 z"
           id="path22745"
           style="fill:#fdf0d9;fill-opacity:1" />
        <path
           d="m 279.64785,344.26672 q -0.1093,-0.0575 -0.2378,-0.0797 -0.12521,-0.0258 -0.27667,-0.0195 -0.53696,0.0225 -0.81142,0.38563 -0.27117,0.35959 -0.24383,1.01359 l 0.0849,2.03083 -0.63679,0.0266 -0.16114,-3.85514 0.63679,-0.0266 0.025,0.59892 q 0.18497,-0.35943 0.49803,-0.54148 0.31292,-0.18548 0.77072,-0.20462 0.0654,-0.003 0.145,0.004 0.0795,0.004 0.17655,0.0168 z"
           id="path22747"
           style="fill:#fdf0d9;fill-opacity:1" />
        <path
           d="m 280.30365,345.98209 -0.12242,-2.33256 0.63303,-0.0332 0.12115,2.30849 q 0.0287,0.54701 0.25646,0.81105 0.22757,0.26059 0.65417,0.2382 0.51262,-0.0269 0.79133,-0.36926 0.28216,-0.34255 0.25255,-0.90677 l -0.11465,-2.18463 0.63302,-0.0332 0.20223,3.85321 -0.63303,0.0332 -0.031,-0.59174 q -0.21209,0.36301 -0.50926,0.5511 -0.2939,0.18447 -0.69642,0.20559 -0.66399,0.0349 -1.0297,-0.35994 -0.3657,-0.39478 -0.40741,-1.18951 z m 1.4656,-2.50905 z"
           id="path22749"
           style="fill:#fdf0d9;fill-opacity:1" />
        <path
           d="m 287.44323,343.3723 0.0385,0.59131 q -0.27777,-0.13038 -0.55406,-0.18491 -0.27307,-0.0582 -0.54809,-0.0403 -0.61538,0.04 -0.93023,0.45408 -0.31507,0.41061 -0.26923,1.11537 0.0458,0.70475 0.41168,1.07453 0.36561,0.36633 0.98099,0.32631 0.27502,-0.0179 0.53848,-0.10753 0.26667,-0.0933 0.5252,-0.25857 l 0.038,0.58443 q -0.25666,0.14098 -0.53798,0.22142 -0.27788,0.0802 -0.59759,0.10102 -0.86978,0.0566 -1.41757,-0.45672 -0.54779,-0.51329 -0.60817,-1.44151 -0.0613,-0.94197 0.41929,-1.51525 0.48401,-0.57351 1.38472,-0.63209 0.29221,-0.019 0.5747,0.0247 0.28227,0.0403 0.55137,0.14366 z"
           id="path22751"
           style="fill:#fdf0d9;fill-opacity:1" />
        <path
           d="m 289.0368,342.00642 0.0825,1.09243 1.30199,-0.0983 0.0371,0.49125 -1.30199,0.0983 0.15769,2.08868 q 0.0355,0.47064 0.17275,0.59502 0.14066,0.12412 0.53572,0.0943 l 0.64928,-0.049 0.0399,0.52904 -0.64928,0.049 q -0.73172,0.0553 -1.03047,-0.19514 -0.29901,-0.25381 -0.35348,-0.97523 l -0.15768,-2.08868 -0.46377,0.035 -0.0371,-0.49125 0.46377,-0.035 -0.0825,-1.09243 z"
           id="path22753"
           style="fill:#fdf0d9;fill-opacity:1" />
        <path
           d="m 291.34515,345.27158 -0.20356,-2.32689 0.63149,-0.0553 0.20146,2.30287 q 0.0477,0.54569 0.28454,0.80163 0.2365,0.25251 0.66207,0.21528 0.51136,-0.0447 0.77799,-0.39659 0.27006,-0.35216 0.22082,-0.91501 l -0.19065,-2.17931 0.63149,-0.0553 0.33626,3.84383 -0.63148,0.0553 -0.0516,-0.59031 q -0.19932,0.37018 -0.48976,0.5685 -0.2873,0.19459 -0.68884,0.22972 -0.66238,0.0579 -1.04161,-0.32387 -0.37922,-0.38181 -0.44858,-1.1746 z m 1.37734,-2.55857 z"
           id="path22755"
           style="fill:#fdf0d9;fill-opacity:1" />
        <path
           d="m 297.89609,342.90735 q -0.11245,-0.0511 -0.24203,-0.0658 -0.12649,-0.0185 -0.27732,-0.003 -0.53476,0.0535 -0.78771,0.43201 -0.24987,0.37471 -0.18467,1.02602 l 0.20245,2.0225 -0.63417,0.0635 -0.38432,-3.83932 0.63418,-0.0635 0.0597,0.59646 q 0.16382,-0.36955 0.46581,-0.56943 0.30164,-0.20331 0.75756,-0.24895 0.0651,-0.007 0.14501,-0.004 0.0795,-0.001 0.17723,0.006 z"
           id="path22757"
           style="fill:#fdf0d9;fill-opacity:1" />
        <path
           d="m 301.77248,343.65684 0.0349,0.30808 -2.89599,0.32845 q 0.11485,0.64574 0.50283,0.94846 0.39102,0.2989 1.01746,0.22785 0.36285,-0.0411 0.69165,-0.16859 0.33222,-0.12783 0.6475,-0.34388 l 0.0676,0.59563 q -0.32259,0.18221 -0.67006,0.29789 -0.34746,0.11569 -0.71374,0.15723 -0.91741,0.10405 -1.51541,-0.36901 -0.59457,-0.47344 -0.69785,-1.384 -0.10676,-0.94137 0.33736,-1.54995 0.44715,-0.6124 1.30979,-0.71024 0.77363,-0.0877 1.27874,0.36118 0.50816,0.44511 0.60522,1.3009 z m -0.65083,-0.11342 q -0.0655,-0.51612 -0.38453,-0.79198 -0.31564,-0.27625 -0.78119,-0.22344 -0.52717,0.0598 -0.81174,0.39371 -0.28116,0.33353 -0.26774,0.87982 z"
           id="path22759"
           style="fill:#fdf0d9;fill-opacity:1" />
      </g>
    </g>
  </g>
</svg>
